<svg viewBox="0 0 1620 1028" xmlns="http://www.w3.org/2000/svg"><defs><style>.cls-1,.cls-21{fill:#e8f2fa;}.cls-2{fill:#dceaff;}.cls-3{fill:#bfdcff;}.cls-21,.cls-3{opacity:0.5;}.cls-4{fill:#a9c2ff;}.cls-5{fill:#ff912b;}.cls-6{fill:#2a3967;}.cls-7{fill:#ffae73;}.cls-8{fill:#26529f;}.cls-9{fill:#1a4379;}.cls-10{fill:#1e3865;}.cls-11{fill:#fc7600;}.cls-12{fill:#f99352;}.cls-13{fill:#25468f;}.cls-14{fill:#f9924f;}.cls-15{fill:#fff;}.cls-16{fill:#6b98f6;}.cls-17{fill:#214d9a;}.cls-18{fill:#d1e0ff;}.cls-19{fill:#fddbba;}.cls-20{fill:#2d3554;}.cls-22{fill:#214a80;}.cls-23{fill:#f70;}.cls-24{fill:#f28018;}.cls-25{fill:#0b3563;}.cls-26{fill:#ffa05e;}</style></defs><g id="图层_2"><g id="图层_1-2"><path d="M151.69,1025.23S-58,815.1,15.72,570.15c48.19-160,207.94-63.06,199.43-322.44S685.87-38.61,818.74,36.64s135.68,123.33,410,93.44,393.76,198.17,251.61,389.76c-124.48,167.77,281,150.94,40,505.86Z" class="cls-1"></path><path d="M662.79,321.37l23.91-2.49a5.49,5.49,0,0,1,5,2.23c1.38,2,2.87,3.93,4.45,5.84a86,86,0,0,0,9.47,9.78,4.6,4.6,0,0,1,1.29,5.35l-9.16,21.67a4.64,4.64,0,0,0,2.54,6.06l20.6,9.44a5.36,5.36,0,0,0,6.55-1.68l12.45-18.06a5.33,5.33,0,0,1,5.74-2.06,100.1,100.1,0,0,0,29.17,2.69,5.32,5.32,0,0,1,5.3,3.4L784.34,376a5.38,5.38,0,0,0,6.08,3.34l22.37-4.18a5.39,5.39,0,0,0,1.29-.4,4.69,4.69,0,0,0,2.86-4.85l-2-16.52-.5-4a92.61,92.61,0,0,0,10.85-6.63A91,91,0,0,0,838,331.8a5.41,5.41,0,0,1,5.73-1.28l18.85,6.85a5.49,5.49,0,0,0,6.7-2.4l7.81-14.57,2.22-4.18a4.78,4.78,0,0,0-1.91-6.42l-16.3-9.64a4.58,4.58,0,0,1-2.3-5.17,79,79,0,0,0,2.48-18.11,13.28,13.28,0,0,0,.05-1.54,2.19,2.19,0,0,1,0-.51,5,5,0,0,1,3.7-4.16l21.8-6.38a5,5,0,0,0,.71-.26,4.85,4.85,0,0,0,2.88-5.35L886,238a5.27,5.27,0,0,0-5.79-3.91l-24.93,2.61a5.26,5.26,0,0,1-5.15-2.5,85.77,85.77,0,0,0-7.81-11.05c-1.56-1.89-3.2-3.7-4.9-5.43a4.71,4.71,0,0,1-1-5.18l8.8-20.83a4.62,4.62,0,0,0-2.51-6l-20.39-9.31a5.65,5.65,0,0,0-7,1.79l-9.86,14.28a5.5,5.5,0,0,1-6.16,2,99.53,99.53,0,0,0-28.13-4.67,5.23,5.23,0,0,1-5-3.43L760,168.23a5.49,5.49,0,0,0-6.23-3.41l-22.23,4.11a4.89,4.89,0,0,0-4.16,5.28l.11,1,2.32,19.2a4.86,4.86,0,0,1-2.88,5h0a93.54,93.54,0,0,0-13.79,8.11c-2.35,1.67-4.57,3.43-6.72,5.26a5.55,5.55,0,0,1-5.5,1l-19.13-6.95a5.6,5.6,0,0,0-6.83,2.42l-10,18.79a4.71,4.71,0,0,0,1.89,6.31l13,7.67a4.86,4.86,0,0,1,2.43,4.33,4.63,4.63,0,0,1-.27,1.35,79.58,79.58,0,0,0-4.69,33.52,4.74,4.74,0,0,1-2.79,4.61,5.49,5.49,0,0,1-.83.32l-17.66,5.16a4.87,4.87,0,0,0-3.59,5.61l.1.48,4.34,20.12A5.35,5.35,0,0,0,662.79,321.37Zm153-62.81A54,54,0,0,1,819,268.78c1.47,7-.06,17.92-3.45,24.28-.36.68-.74,1.35-1.11,2-23.4,40.18-84.72,32.19-94.82-13.14-1.3-5.93-.49-14.56,1.8-21.18a29.48,29.48,0,0,1,1.83-4.17,53.45,53.45,0,0,1,11.41-14.53C759.84,219.67,801.91,227,815.75,258.56Z" class="cls-2"></path><path d="M1421.92,243.9c-23-42.8-102.42-13.5-102.42-13.5s-39,89.45-54.91,94.33,17.22-82.51,17.22-82.51c-32.18,3-105,53.58-105,53.58s24.92,91.41,8.22,92.52-17.6-82-17.6-82c-28.73,14.1-50.17,52.32-50.17,52.32-24.12,60.27,60.77,85.81,60.77,85.81s7.9,31.85-5.6,72.53h0a105,105,0,0,0-5.8,20.11l8.33-1.53c.24-2.19.56-4.33,1-6.4,0,0,0,0,0,0s0-.06,0-.09c.32-1.29.77-3.14,1.35-5.39h0c1.55-5.08,2.54-8.8,3.1-11.46v0c4.51-15.87,11.45-36.74,17.93-42a15.69,15.69,0,0,1-2.54-3.21l2.54,3.21c20.33,25.65,92.64,17.25,130.74,2.41s18.56-22-6.44-34.91-68.86-.22-83.52-4.39,3.28-14.31,30.17-17.3,45.38,19.09,89,15,60.2-84.53,60.2-84.53c-27.72,13.91-83.92,8.56-88-.49s74.57-22.52,86.18-27.59S1444.87,286.7,1421.92,243.9Z" class="cls-2"></path><path d="M110.78,572.86c-9.34-47,73.25-67.59,73.25-67.59s89.17,50,105.06,45.08-67.23-56.51-67.23-56.51c27.7-15.46,118.73-15.29,118.73-15.29s39.25,87,53.34,78.63-39-75.4-39-75.4c32.13-4.64,74.05,14.08,74.05,14.08,58.34,34.88,6.91,102.38,6.91,102.38s14.31,29.88,51.46,55h0A120.45,120.45,0,0,1,505,666.09l-7.66,3.4q-2.42-2.44-4.92-4.58l0,0-.08-.06c-1.09-.86-2.65-2.09-4.57-3.57h0c-4.53-3.21-7.73-5.64-9.9-7.45l0,0c-13.9-10.2-33-23.07-41.59-23.72a14,14,0,0,0,0-4c0,1.27,0,2.59,0,4,.34,31.8-63,65.17-103.1,74.42s-29.13-7.34-17.46-31.53,55-38.35,64-49.81-11.9-9.64-35.36,2.87-24,40.45-61.52,61.33S179.88,653,179.88,653c31.2-4.23,72.73-39.66,70.12-49.16s-74.28,23.31-86.87,25.69S120.12,619.85,110.78,572.86Z" class="cls-2"></path><path d="M1470.91,874.46c40.65-29.47-6.48-95.53-6.48-95.53s-102.59-17.21-111-30.62,90.81-1.13,90.81-1.13c-9.67-28.55-78-84.22-78-84.22s-91.7,41.12-96.26,26.21,83.2-32.58,83.2-32.58c-20.75-23.17-65.55-34.84-65.55-34.84-68.68-9.62-78.49,72.46-78.49,72.46s-32.11,13.62-77.91,9.64h0a129.43,129.43,0,0,0-22.46-1.18l3.31,7.24c2.37-.23,4.7-.37,7-.42h.14l6,.13h0c5.69.38,9.83.52,12.75.49h0c17.71.88,41.21,2.93,48.14,7.72a15.52,15.52,0,0,1,2.87-3l-2.87,3c-23,23.62.52,87.43,23.95,118.94s27.07,12.35,35.65-12.91-13.73-62.44-12.3-76.56,15.82.07,24.43,23.82-11,45,2.17,83.65,101.67,37.4,101.67,37.4c-20.34-22.29-26.08-74.29-17.33-79.81s39,63,46.69,72.49S1430.27,903.94,1470.91,874.46Z" class="cls-2"></path><path d="M1101.94,321.29s4.77-88,49.25-143.23c5.91-7.34,18.54-3.71,19,5.43,0,.15,0,.3,0,.46C1170.75,199.57,1121.5,268.72,1101.94,321.29Z" class="cls-3"></path><path d="M1097.93,346.66S1138,234.45,1216.71,180.93c4.8-3.26,11.67-2.63,15.38,1.69,2.41,2.81,3.74,7.36,1.81,14.71C1228.77,217,1141.78,287.42,1097.93,346.66Z" class="cls-3"></path><path d="M416.48,464.29s-39.93-64.43-96.12-90.16c-7.47-3.42-15.46,3.76-12,10.79l.18.36C314.54,397.19,380.09,431.73,416.48,464.29Z" class="cls-3"></path><path d="M430,481.93s-76.42-70.12-157.63-82.49c-4.95-.75-9.86,2.15-10.86,6.7-.65,3,.23,6.85,4.72,11.7C278.15,430.76,372.57,452.94,430,481.93Z" class="cls-3"></path><path d="M1298.13,325V884c0,9.77-7.63,17.71-17,17.71H409.47c-9.41,0-17-7.94-17-17.71V325c0-9.79,7.63-17.71,17-17.71h871.62C1290.5,307.29,1298.13,315.21,1298.13,325Z" class="cls-4"></path><path d="M1255,293.09v45.33H282.31V293.09c0-9.35,8.19-16.93,18.3-16.93h936.14C1246.85,276.16,1255,283.74,1255,293.09Z" class="cls-5"></path><path d="M312.06,307.29c0-4.35,3.82-7.88,8.52-7.88s8.52,3.53,8.52,7.88-3.81,7.88-8.52,7.88S312.06,311.64,312.06,307.29Z" class="cls-2"></path><path d="M345.63,307.29c0-4.35,3.82-7.88,8.52-7.88s8.52,3.53,8.52,7.88-3.81,7.88-8.52,7.88S345.63,311.64,345.63,307.29Z" class="cls-2"></path><path d="M380.05,307.29c0-4.35,3.81-7.88,8.52-7.88s8.51,3.53,8.51,7.88-3.81,7.88-8.51,7.88S380.05,311.64,380.05,307.29Z" class="cls-2"></path><path d="M912.49,227.34l11.64-1.22a2.7,2.7,0,0,1,2.45,1.08q1,1.45,2.16,2.85a41.65,41.65,0,0,0,4.62,4.76,2.26,2.26,0,0,1,.63,2.61L929.52,248a2.26,2.26,0,0,0,1.24,2.95l10,4.6a2.6,2.6,0,0,0,3.19-.82l6.07-8.79a2.58,2.58,0,0,1,2.79-1,49.39,49.39,0,0,0,14.21,1.31,2.57,2.57,0,0,1,2.58,1.65l2,6.06a2.64,2.64,0,0,0,3,1.62l10.9-2a2.7,2.7,0,0,0,.63-.19,2.29,2.29,0,0,0,1.39-2.36l-1-8.05-.24-2a45,45,0,0,0,5.28-3.23,44,44,0,0,0,6.2-5.31,2.66,2.66,0,0,1,2.79-.62l9.18,3.34a2.69,2.69,0,0,0,3.27-1.17l3.8-7.1,1.08-2a2.31,2.31,0,0,0-.93-3.12l-7.94-4.7a2.23,2.23,0,0,1-1.12-2.51,38.87,38.87,0,0,0,1.21-8.82,6.35,6.35,0,0,0,0-.75,1,1,0,0,1,0-.25,2.44,2.44,0,0,1,1.81-2l10.61-3.11a1.8,1.8,0,0,0,.35-.12,2.37,2.37,0,0,0,1.4-2.61l-2.18-10.05a2.56,2.56,0,0,0-2.82-1.9l-12.14,1.27a2.57,2.57,0,0,1-2.51-1.22,41.74,41.74,0,0,0-3.8-5.38c-.77-.92-1.56-1.8-2.39-2.65a2.3,2.3,0,0,1-.5-2.52l4.29-10.14a2.25,2.25,0,0,0-1.22-2.93l-9.93-4.54a2.75,2.75,0,0,0-3.39.87l-4.8,7a2.7,2.7,0,0,1-3,1,48.4,48.4,0,0,0-13.7-2.27,2.55,2.55,0,0,1-2.41-1.67l-3-8.86a2.66,2.66,0,0,0-3-1.66l-10.83,2a2.36,2.36,0,0,0-2,2.57l0,.47,1.13,9.35a2.37,2.37,0,0,1-1.4,2.41h0a46.15,46.15,0,0,0-6.72,3.95c-1.15.82-2.23,1.67-3.27,2.56a2.71,2.71,0,0,1-2.68.49l-9.32-3.39a2.72,2.72,0,0,0-3.32,1.18l-4.89,9.15a2.47,2.47,0,0,0-.25.8,2.35,2.35,0,0,0,1.17,2.27l6.36,3.74a2.36,2.36,0,0,1,1.18,2.11,2.21,2.21,0,0,1-.13.66,38.86,38.86,0,0,0-2.29,16.32,2.3,2.3,0,0,1-1.35,2.25,2.86,2.86,0,0,1-.41.15l-8.6,2.51a2.38,2.38,0,0,0-1.75,2.74l0,.23,2.12,9.8A2.61,2.61,0,0,0,912.49,227.34ZM987,196.75a26.25,26.25,0,0,1,1.58,5,20.46,20.46,0,0,1-1.68,11.83l-.54,1c-11.39,19.56-41.26,15.67-46.18-6.41a21.11,21.11,0,0,1,.88-10.31,14.22,14.22,0,0,1,.89-2,26,26,0,0,1,5.56-7.08C959.75,177.8,980.24,181.37,987,196.75Z" class="cls-2"></path><path d="M373.2,733.06S374.49,720,358.7,720c0,0,4.78,1.2,7.26,3.61,0,0-10.08-5.48-21,2.93S340.77,756,337.43,760s-16.31,4.8-14.73,17.75,41.21,29.16,38.67,39.88c0,0,15.52-21.12,4.42-30.76,0,0,5.41,4.72,6,10.32,0,0,1.47-10.94-6.06-14.44-6.66-3.1-12.11-14.43-11.54-16.46S373.2,733.06,373.2,733.06Z" class="cls-6"></path><path d="M357.65,795.87S369.45,841,381,850.07C388,855.5,408.7,868,408.7,868l-8.61,2.9s-28.72-9-35.15-16-24-42-24-42Z" class="cls-7"></path><path d="M246.73,875.23l.33.53c2.58,4.15,8.5,14.33,15,25.46,3.08,5.29,6.32,10.79,9.38,16,5.28,8.93,10.09,16.88,12.89,21.09s4.95,7.28,5.8,8.48h0a1.87,1.87,0,0,1,.28,1.24,59.78,59.78,0,0,0,.18,11.2c3.94,36.23,30.34,55.64,30.34,55.64l7.85,1.08s-11.11-38.08-14.38-59.61a38.73,38.73,0,0,1-.6-8.54c.58-5.61-.5-13.84-2.53-23.3-3.63-16.8-10.28-37.42-16.06-53.93-.36-1-11.4-38-11.4-38-9.27,7.49-43.07,10.58-43.07,10.58S235.05,856,246.73,875.23Z" class="cls-8"></path><path d="M345.3,1025.1H312.53s-.78-4.62.93-8.13,4-3.47.3-8.74c2.08,2,8.77,2.8,13.51,2.21.58.87,3.74,6.72,5.68,8C335.09,1019.87,344.64,1019.36,345.3,1025.1Z" class="cls-9"></path><path d="M246.73,875.23l.33.53c2.58,4.15,16.54,28,23.07,39.15-7.56-28.78-2.3-57.56-2.3-57.56Z" class="cls-10"></path><path d="M368.73,731.22c.21-.79-18.72,7.92-19.68,8.9-8.87,9.12-6.34,21-1.26,21.12,3.26.07,2.62,5.08,2.62,5.08l36.3-14.2S382.34,728.54,368.73,731.22Z" class="cls-6"></path><path d="M356.53,789.09s5.53,10.2,4.84,18.49c0,0-6.66,9.72-23.94,12.19C337.43,819.77,352.28,789.08,356.53,789.09Z" class="cls-5"></path><path d="M272.28,845.37l.11-5.67c-12.21,1.42-42.1-13.5-42.1-13.5s-12.78,7.86-14.53,30.31c-.85,11-6.25,57.29-6.85,71.13-.21,5-.29,8.59-.31,10v0a1.92,1.92,0,0,1-.52,1.17,63.94,63.94,0,0,0-6.61,9.38c-18.63,32.07-8.89,75.65-8.89,75.65l4.32-1s15.76-45.17,26-64.72a40.3,40.3,0,0,1,4.67-7.38c3.87-4.35,7.95-11.74,12-20.63C247.2,913.32,272.28,845.37,272.28,845.37Z" class="cls-8"></path><path d="M218.63,1025.1H185.87s-.79-4.62.92-8.13,4.21-4.89,3.6-9a12.3,12.3,0,0,0,10.21,3.62c.58.87,3.75,5.53,5.69,6.81C208.43,1019.87,218,1019.36,218.63,1025.1Z" class="cls-9"></path><path d="M335.22,826.28c-4.4.69.72,3.93-5.33,4.54-8.62.87-17.51,1.46-22.17,3.18-1.7.63-2.84,1.4-3.19,2.39-2,5.62-14.82,15.28-14.82,15.28-57-2.4-60.73-25.93-60.73-25.93,37-33.28,68.54-51.41,94.57-53.66,6.34-.54,14.88.19,18.89,1.84,9.1,3.75,14.09,15.17,14.09,15.17S352,823.64,335.22,826.28Z" class="cls-5"></path><path d="M329.89,830.82c-8.62.87-17.51,1.46-22.17,3.18-1.91-26.33,11.52-46.13,11.52-46.13S328,820.85,329.89,830.82Z" class="cls-11"></path><path d="M342,776.09c1.63,4.72,7.06,18.17,14.58,13-.25-1,1.33-3.93,3.19-6.89,2.38-3.79,5.22-7.66,5.22-7.66l-12.26-9.94L352,764a29.86,29.86,0,0,1-9.12,9.59A2.17,2.17,0,0,0,342,776.09Z" class="cls-7"></path><path d="M364.94,774.54s-2.83,3.87-5.22,7.66c-7.62-4.35-7.63-13.08-7-17.6Z" class="cls-12"></path><path d="M365.28,779.52s-18.51-9.52-11.92-20.1S362,740.5,374.1,746.14,386,757,384.68,761.05,370.26,781.73,365.28,779.52Z" class="cls-7"></path><path d="M387.81,754.88c-.85-4.69-3.43-5.14-5.22-4.83-6.84-10.46-18-6.37-18-6.37a25.86,25.86,0,0,1-14.59,8.1s2.15,3.7,11,6a16.29,16.29,0,0,0,8.73-.65,51.92,51.92,0,0,1-12.56,4.38c11.66,1,22.75-8.87,23.9-9.93.54,1.53,1.48,4.73.92,7.07-.77,3.18-3.82,8.94-2,9.68C380,768.32,389.08,761.92,387.81,754.88Z" class="cls-6"></path><polygon points="554.54 986.42 416.45 924.13 434.11 890.62 572.2 952.91 554.54 986.42" class="cls-13"></polygon><path d="M373.26,931.14c-12.67-5.72-21.68-16.31-24.71-29.07-1.23-5.18,2.31-10.3,7.91-11.44s11.13,2.14,12.36,7.32a23.54,23.54,0,0,0,13.53,15.93c12.46,5.62,27.53.81,33.61-10.71s.87-25.47-11.58-31.09a26.9,26.9,0,0,0-18.12-1.4c-5.5,1.5-11.27-1.4-12.89-6.49s1.51-10.42,7-11.92a49.19,49.19,0,0,1,33.09,2.55c22.74,10.26,32.22,35.72,21.14,56.76S396,941.39,373.26,931.14Z" class="cls-13"></path><path d="M568.61,1019.25c-22.74-10.25-32.22-35.72-21.13-56.75s38.6-29.82,61.34-19.56a43.88,43.88,0,0,1,22.57,22.55c2.1,4.93-.51,10.5-5.84,12.45s-11.36-.47-13.46-5.4a24,24,0,0,0-12.36-12.34c-12.45-5.62-27.53-.82-33.6,10.71s-.88,25.47,11.58,31.09a26.83,26.83,0,0,0,21.9,0c5.17-2.29,11.36-.27,13.84,4.51s.3,10.51-4.87,12.8A49,49,0,0,1,568.61,1019.25Z" class="cls-13"></path><path d="M522.5,956.72l-72.75-32.81a3.8,3.8,0,0,1-1.94-5.23l1.85-3.51a4.38,4.38,0,0,1,5.64-1.79l72.75,32.81a3.79,3.79,0,0,1,1.94,5.22l-1.85,3.51A4.39,4.39,0,0,1,522.5,956.72Z" class="cls-10"></path><path d="M354.68,897.1s.41,3.19,1.86,4.84,5.7,5.63,5.78,8c0,0-.22,1-1.13.84s-4.07-3.08-5.69-2.87c0,0,.87,4.68,1.73,6s2.43,6.28,1.92,7.42-9.1-5.48-11.7-8.71,0-16.36,0-16.36Z" class="cls-7"></path><path d="M337.32,783.41s-21.67-1.09-25.51,11.49,7.22,62.83,9.6,68c4.35,9.44,25.5,36.38,25.5,36.38l7.77-2.19s-14.1-41.16-17.25-45.23C332.49,845.48,343.81,788.89,337.32,783.41Z" class="cls-7"></path><path d="M307.53,811.73c.06.3,20.51,3.48,33.29-2.52,0,0,10.69-31-4.58-29.49s-24.31,5.93-24.69,12.7S307.53,811.73,307.53,811.73Z" class="cls-5"></path><path d="M398.06,847.82a9,9,0,0,0-3.6.83c-1.18.85-2.5,2.31.14,3.53,4,1.83,11.91,1,11.6-.08C405.23,848.63,403.79,847.57,398.06,847.82Z" class="cls-7"></path><path d="M512.21,354.85a3.24,3.24,0,0,0-.66,3.66v0c1,2.45,4.12,5.18,7.79,7.9.47.35.88.67,1.25,1l.28.23.21.18c3.42,2.92,2.14,3.59,8.28,9.51,7,6.75,11.84,6.87,13.21,6.25,1.16-.52-1.2-4.1-3.81-8.12l-.38-.59c-.35-.53-.7-1.08-1-1.61-3.07-4.84-2.28-7.12-1.55-14.32.59-5.85,9.84-32.71,9.84-32.71l-13.43-2.14s-4.05,21.38-8.5,24.68c-2.39,1.75-5.05,1.77-7.34,3.08l-.48.27A17.71,17.71,0,0,0,512.21,354.85Z" class="cls-7"></path><path d="M512.21,354.85a3.24,3.24,0,0,0-.66,3.66v0c1.17,2.45,4.25,5.16,7.8,7.88.46.35.87.68,1.24,1l.28.23.21.18c3.42,2.92,2.14,3.59,8.28,9.51,7,6.75,11.84,6.87,13.21,6.25,1.16-.52-1.2-4.1-3.81-8.12a30,30,0,0,1-12.5-8.52c-4.22-5-7-11.39-9.9-15.09l-.48.27A17.71,17.71,0,0,0,512.21,354.85Z" class="cls-10"></path><path d="M620.52,347.09c.83,3.83,6.74,3.19,13.35,1.7s5,.28,14.43-.68,12.24-4.21,12.53-5.5-4.39-1.55-9.37-2.08l-1.88-.21c-5.63-.65-9.74-4-14.85-6.77-4.84-2.61-12.06-13.25-12.06-13.25l-12.89.94s6.76,9.51,9.38,13.64c1.54,2.43,1.46,5.64,1.27,8.13A14.32,14.32,0,0,0,620.52,347.09Z" class="cls-7"></path><path d="M633.87,348.79c6.6-1.49,5,.28,14.43-.68s12.24-4.21,12.53-5.5-4.39-1.55-9.37-2.08l0,.09A28,28,0,0,1,638,344.49c-6.38.14-13.13-1.55-17.53-1.48a14.32,14.32,0,0,0,.09,4.08C621.35,350.92,627.26,350.28,633.87,348.79Z" class="cls-10"></path><path d="M571.13,270.84l-12,30L543.36,340a27.49,27.49,0,0,1-8.36-.71,37.16,37.16,0,0,1-8.08-3.64s4.37-42,12.51-66.19c2.09-6.2,4.43-11.21,7-14C559.08,241.62,571.13,270.84,571.13,270.84Z" class="cls-6"></path><path d="M558.89,223.2c-7.9-2.35-30.41.67-53,4.77l-4.74-7.23-48.84-3.53s-16.12,33.07-7.3,54.15c1.3,3.09,3.88,5.08,8.27,5.14h39.22c24.3,0,51.41-15.45,54.92-16.1,5.74-1.06,8,9.56,13.78,20.72s54,49.41,54,49.41,7.41.06,10.47-1a10.37,10.37,0,0,0,4.5-2.63S576.69,228.51,558.89,223.2Z" class="cls-8"></path><path d="M485,83.16c-6.85-1.63-16.22,0-17.77.14-18.59,1.69-24.83,20.87-22,35.75,2.6,13.74-4.93,17.54-13.66,28.39-17.49,21.75-6.06,40.09,7.75,44.82,8.28,2.83,19.78-4.32,19.78-4.32.21.07,36.14-21.78,50.87-34.1C534.43,145,502.39,87.31,485,83.16Z" class="cls-13"></path><path d="M487.69,146.07c.49,1.6-7.64,4.52-13.85,3.44-5.83-1-12.38-7.33-11-7.92,2.24-1,3.74-3.43,2.52-16.63l1.11.11,18.68,2s.05,5.38.49,10.42C486,141.71,486.9,143.48,487.69,146.07Z" class="cls-7"></path><path d="M485.12,127.05s.05,5.38.49,10.42c-10.31.51-16.52-7.75-19.17-12.4Z" class="cls-14"></path><path d="M489,131.56s-24.31,2.22-25.57-11.81-5.24-23.18,10.22-25.19,19,3.11,20.62,7.7S495.27,130.62,489,131.56Z" class="cls-7"></path><path d="M486.37,92.35s-3.06,17.13-16.9,21.2c-10.1,3-14.67,1-14.67,1a36.92,36.92,0,0,0,6.59-14.26,7.07,7.07,0,0,1,4.94-5.23C473.51,92.89,482.2,86.91,486.37,92.35Z" class="cls-13"></path><path d="M481.79,96s4.58,1,8.64,6.41c2.22,3,4.79,10.52,4.35,13.86,0,0,4.25-15.86-1.95-21.76C486.25,88.26,481.79,96,481.79,96Z" class="cls-13"></path><path d="M443.93,192.14c.43,1.71.8,3.27,1.11,4.72.49,2.33.83,4.34,1.07,6.12.74,5.53.52,8.8,1,12.39a29.11,29.11,0,0,0,1.82,6.75c1,2.56,27.41,4.85,42.44,3.93,4.77-.29,8.41-.91,9.7-1.94,5.36-4.31,4.82,5.17,5.56-40.16.35-22.11-20.28-41.8-20.28-41.8s-1.65,9.45-22.11-1.8c-.73-.39-8.78,10.65-16.54,24.25C439.17,179.61,441.52,182.79,443.93,192.14Z" class="cls-5"></path><path d="M559.09,300.83,543.36,340a27.49,27.49,0,0,1-8.36-.71,37.16,37.16,0,0,1-8.08-3.64s4.37-42,12.51-66.19Z" class="cls-13"></path><path d="M486.37,142.15s21.06,3.3,23.53,11.69,19.55,55.29,19.55,55.29-13.23,4.18-18.18-.4-17.2-42.44-17.2-42.44Z" class="cls-5"></path><path d="M483.37,123.29a4.13,4.13,0,0,0,3.71,2.31c2.69,0,3.41-.38,3.92-.9a7.82,7.82,0,0,0,1-1.55A24.74,24.74,0,0,0,483.37,123.29Z" class="cls-15"></path><path d="M446.11,203c.74,5.53.52,8.8,1,12.39,19.12.06,44.68-13.66,44.68-13.66Z" class="cls-11"></path><path d="M491.81,190.11S462,189.29,457,173.63c-5.52-17.21-11.7,7.07-11.7,7.07l3.29,15.5h32.67Z" class="cls-11"></path><path d="M543.72,147.61l-1.6-3.69a11.36,11.36,0,0,0-10.49-6.54H502v91.84H624.76V154.81h-69.5A12.49,12.49,0,0,1,543.72,147.61Z" class="cls-16"></path><path d="M520.47,193.23v-6.62l25.1-10.17v6.76L528,189.87l17.53,6.67v6.86Z" class="cls-15"></path><path d="M571.65,168.52h6.69l-23,44.43h-6.69Z" class="cls-15"></path><path d="M606.23,186.61v6.62L581.14,203.4v-6.76L598.66,190l-17.52-6.67v-6.86Z" class="cls-15"></path><path d="M491.8,193.74l2.16-3.13a17.82,17.82,0,0,0,4.1-2.07c2.84-1.85,2.46-4.61,3.89-4.32v6.08l-.15,0c6.1,1.51,13.24-.13,13.38,1.28.39,3.87-2.84,5.61-5.55,6.82-2.07.93-4.43,2.32-8.17,1.24-2.74-.79-7.05-1.59-7.05-1.59Z" class="cls-7"></path><path d="M464.26,140.36s-19.33,1.17-24.17,8.14-10.82,42.4-8.31,54.56,64.42-2.32,64.42-2.32l-2-10.56s-35.73.19-37.77-4.11C453.76,180.34,464.26,140.36,464.26,140.36Z" class="cls-5"></path><path d="M557.58,154.77c-.17.47,2.91,5.15,7.29,4.34,2.74-.51,6.3-6,3.17-7.17C562.83,149.94,558,153.53,557.58,154.77Z" class="cls-7"></path><polygon points="746.6 400.78 745.95 400.46 817.72 276 818.37 276.32 746.6 400.78" class="cls-17"></polygon><polygon points="1080.66 356.96 999.95 276.39 1000.49 275.93 1081.2 356.5 1080.66 356.96" class="cls-17"></polygon><path d="M1131.09,380.24a28.2,28.2,0,0,1-6,21.88,31.24,31.24,0,0,1-20.59,11.4L743.63,459.4c-18.42,2.34-35.45-8.95-37.85-25.09a27.3,27.3,0,0,1,6.76-22,35.4,35.4,0,0,1,22.37-11.62l360.85-45.88C1112.8,352.68,1128.7,364.11,1131.09,380.24Z" class="cls-1"></path><path d="M1131.09,380.24a28.2,28.2,0,0,1-6,21.88,31.24,31.24,0,0,1-20.59,11.4l-65.3,8.3-8.72-58.68,65.3-8.3C1112.8,352.68,1128.7,364.11,1131.09,380.24Z" class="cls-5"></path><path d="M1091.35,396.16a18,18,0,0,1-2.45.14,16.87,16.87,0,0,1-11.48-4.54,14.34,14.34,0,0,1,.27-21.35h0a17.29,17.29,0,0,1,23.07.25,14.32,14.32,0,0,1-.27,21.35A16.68,16.68,0,0,1,1091.35,396.16Zm-11.78-24a12,12,0,0,0-.22,17.83,14.41,14.41,0,0,0,19.27.21,12,12,0,0,0,.22-17.83,14.44,14.44,0,0,0-19.27-.21Z" class="cls-15"></path><polygon points="1063.4 406.18 1061.52 404.4 1077.45 390 1079.32 391.78 1063.4 406.18" class="cls-15"></polygon><path d="M1056.93,410.29h0a2.1,2.1,0,0,1,0-3.14l9.37-8.48a2.55,2.55,0,0,1,3.4,0h0a2.11,2.11,0,0,1,0,3.14l-9.38,8.48A2.54,2.54,0,0,1,1056.93,410.29Z" class="cls-15"></path><rect rx="3.18" height="6.36" width="81.07" y="692.73" x="446.89" class="cls-5"></rect><path d="M486.44,721h-37.2a2.26,2.26,0,0,1-2.35-2.17h0a2.26,2.26,0,0,1,2.35-2.17h37.2a2.26,2.26,0,0,1,2.34,2.17h0A2.26,2.26,0,0,1,486.44,721Z" class="cls-16"></path><rect rx="2.17" height="4.34" width="70.21" y="707.53" x="446.89" class="cls-16"></rect><rect rx="2.17" height="4.34" width="65.56" y="707.53" x="523.5" class="cls-16"></rect><path d="M532.83,721H495.64a2.26,2.26,0,0,1-2.35-2.17h0a2.26,2.26,0,0,1,2.35-2.17h37.19a2.26,2.26,0,0,1,2.35,2.17h0A2.26,2.26,0,0,1,532.83,721Z" class="cls-16"></path><rect rx="3.18" height="6.36" width="81.07" y="692.73" x="538.69" class="cls-5"></rect><rect rx="3.18" height="6.36" width="81.07" y="740.65" x="446.89" class="cls-5"></rect><path d="M486.44,768.9h-37.2a2.27,2.27,0,0,1-2.35-2.17h0a2.27,2.27,0,0,1,2.35-2.18h37.2a2.27,2.27,0,0,1,2.34,2.18h0A2.27,2.27,0,0,1,486.44,768.9Z" class="cls-16"></path><rect rx="2.17" height="4.34" width="70.21" y="755.45" x="446.89" class="cls-16"></rect><rect rx="2.17" height="4.34" width="65.56" y="755.45" x="523.5" class="cls-16"></rect><path d="M532.83,768.9H495.64a2.27,2.27,0,0,1-2.35-2.17h0a2.27,2.27,0,0,1,2.35-2.18h37.19a2.27,2.27,0,0,1,2.35,2.18h0A2.27,2.27,0,0,1,532.83,768.9Z" class="cls-16"></path><rect rx="3.18" height="6.36" width="81.07" y="740.65" x="538.69" class="cls-5"></rect><polygon points="916.98 455.78 873.93 465.05 852.64 500.9 836.38 419.21 916.98 455.78" class="cls-10"></polygon><polygon points="899.08 490.76 892.81 495.16 865.3 461.58 871.58 457.19 899.08 490.76" class="cls-10"></polygon><rect rx="11.56" height="112.31" width="121.39" y="512.33" x="775.16" class="cls-18"></rect><path d="M790.67,601.15l23.59-39.35a8.1,8.1,0,0,1,13-.76l13.61,17.17a8.16,8.16,0,0,0,12,.6h0a8.15,8.15,0,0,1,12.24.94l14.68,21c3.34,4.77-.36,11.08-6.51,11.08H797.46C791.54,611.81,787.8,605.93,790.67,601.15Z" class="cls-16"></path><path d="M837.22,543.41c0-4.74,4.16-8.58,9.28-8.58s9.28,3.84,9.28,8.58S851.63,552,846.5,552,837.22,548.15,837.22,543.41Z" class="cls-16"></path><path d="M1044.09,627.67,939.19,640.9c-4.25.54-8.16-2.21-8.74-6.14l-14.3-97.06a7.3,7.3,0,0,1,6.63-8.08l104.91-13.24c4.24-.53,8.15,2.22,8.73,6.14l14.31,97.06A7.3,7.3,0,0,1,1044.09,627.67Z" class="cls-18"></path><path d="M943.44,616.66l17.62-41.94c2.05-4.88,8.88-6.15,12.81-2.38l16,15.31a8.16,8.16,0,0,0,12-.9h0a8.14,8.14,0,0,1,12.26-.6l17.61,19c4,4.31,1.26,11-4.83,11.79l-75.14,9.48C945.86,627.11,941.29,621.76,943.44,616.66Z" class="cls-16"></path><path d="M981.13,553.63c-.69-4.69,2.86-9,7.94-9.66s9.75,2.64,10.45,7.34-2.87,9-7.94,9.67S981.82,558.33,981.13,553.63Z" class="cls-16"></path><rect height="48.53" width="61.18" y="974.64" x="674.47" class="cls-5"></rect><rect height="3.75" width="65.72" y="972.56" x="672" class="cls-4"></rect><rect height="15.42" width="61.18" y="987.77" x="674.47" class="cls-19"></rect><path d="M810.08,1023.2H752.31a3.69,3.69,0,0,1-3.83-3.54v-5.93a3.73,3.73,0,0,1,4.25-3.52l57.77,5.93a3.65,3.65,0,0,1,3.4,3.52h0A3.68,3.68,0,0,1,810.08,1023.2Z" class="cls-5"></path><path d="M1618,1028,9.77,1027.49a1.9,1.9,0,0,1-2-1.82v-.93a1.9,1.9,0,0,1,2-1.81l1608.27.51a1.9,1.9,0,0,1,2,1.82v.93A1.9,1.9,0,0,1,1618,1028Z" class="cls-20"></path><path d="M709.17,629.05h-6.66a1,1,0,1,1,0-2h6.61a1.07,1.07,0,0,1,1.12,1A1,1,0,0,1,709.17,629.05Zm-13.27,0h-6.61a1,1,0,1,1,0-2h6.61a1,1,0,1,1,0,2Zm-13.23,0h-6.61a1,1,0,1,1,0-2h6.61a1,1,0,1,1,0,2Zm-13.22,0h-6.61a1,1,0,1,1,0-2h6.61a1,1,0,1,1,0,2Zm-13.22,0h-6.62a1,1,0,1,1,0-2h6.62a1,1,0,1,1,0,2Zm-13.23,0h-6.61a1,1,0,1,1,0-2H643a1,1,0,1,1,0,2Zm-13.22,0h-6.61a1,1,0,1,1,0-2h6.61a1,1,0,1,1,0,2Zm-13.22,0h-6.62a1,1,0,1,1,0-2h6.62a1,1,0,1,1,0,2Zm-13.23,0h-6.61a1,1,0,1,1,0-2h6.61a1,1,0,1,1,0,2Zm-13.22,0H583.5a1,1,0,1,1,0-2h6.61a1,1,0,1,1,0,2Zm-13.23,0h-6.61a1,1,0,1,1,0-2h6.61a1,1,0,1,1,0,2Zm-13.22,0h-6.61a1,1,0,1,1,0-2h6.61a1,1,0,1,1,0,2Zm-13.22,0h-6.62a1,1,0,1,1,0-2h6.62a1,1,0,1,1,0,2Zm-13.23,0H530.6a1,1,0,1,1,0-2h6.61a1,1,0,1,1,0,2Zm-13.22,0h-6.61a1,1,0,1,1,0-2H524a1,1,0,1,1,0,2Zm-13.22,0h-6.62a1,1,0,1,1,0-2h6.62a1,1,0,1,1,0,2Zm-13.23,0h-6.61a1,1,0,1,1,0-2h6.61a1,1,0,1,1,0,2Zm-13.22,0h-5.9l-.78,0a1,1,0,1,1,.14-2l.64,0h5.9a1,1,0,1,1,0,2Zm231.07-1.78a1.13,1.13,0,0,1-.91-.44,1,1,0,0,1,.29-1.41,9.45,9.45,0,0,0,3.7-4.23,1.12,1.12,0,0,1,1.42-.56,1,1,0,0,1,.61,1.32,11.64,11.64,0,0,1-4.5,5.15A1.1,1.1,0,0,1,715.39,627.27Zm-243.78-.36a1.18,1.18,0,0,1-.67-.21,11.46,11.46,0,0,1-4.15-5.39,1,1,0,0,1,.69-1.28,1.11,1.11,0,0,1,1.39.64,9.32,9.32,0,0,0,3.41,4.42,1,1,0,0,1,.2,1.42A1.14,1.14,0,0,1,471.61,626.91Zm248.68-10.35a1.05,1.05,0,0,1-1.1-1v-6.12a1.1,1.1,0,0,1,2.19,0v6.12A1.05,1.05,0,0,1,720.29,616.56Zm-253-.62a1.05,1.05,0,0,1-1.1-1v-6.12a1.1,1.1,0,0,1,2.19,0v6.12A1.05,1.05,0,0,1,467.26,615.94Zm253-11.61a1.06,1.06,0,0,1-1.1-1V597.2a1.1,1.1,0,0,1,2.19,0v6.11A1.06,1.06,0,0,1,720.29,604.33Zm-253-.63a1.05,1.05,0,0,1-1.1-1v-6.12a1.1,1.1,0,0,1,2.19,0v6.12A1.05,1.05,0,0,1,467.26,603.7Zm253-11.61a1.05,1.05,0,0,1-1.1-1V585a1.1,1.1,0,0,1,2.19,0v6.12A1.05,1.05,0,0,1,720.29,592.09Zm-253-.62a1.05,1.05,0,0,1-1.1-1v-6.12a1.1,1.1,0,0,1,2.19,0v6.12A1.05,1.05,0,0,1,467.26,591.47Zm253-11.61a1.06,1.06,0,0,1-1.1-1v-6.11a1.1,1.1,0,0,1,2.19,0v6.11A1.06,1.06,0,0,1,720.29,579.86Zm-253-.63a1.05,1.05,0,0,1-1.1-1V572.1a1.1,1.1,0,0,1,2.19,0v6.12A1.05,1.05,0,0,1,467.26,579.23Zm253-11.61a1.05,1.05,0,0,1-1.1-1v-6.12a1.1,1.1,0,0,1,2.19,0v6.12A1.05,1.05,0,0,1,720.29,567.62Zm-253-.62a1.05,1.05,0,0,1-1.1-1v-6.12a1.1,1.1,0,0,1,2.19,0V566A1.05,1.05,0,0,1,467.26,567Zm253-11.61a1.06,1.06,0,0,1-1.1-1v-6.11a1.1,1.1,0,0,1,2.19,0v6.11A1.06,1.06,0,0,1,720.29,555.39Zm-253-.63a1.05,1.05,0,0,1-1.1-1v-6.12a1.1,1.1,0,0,1,2.19,0v6.12A1.05,1.05,0,0,1,467.26,554.76Zm253-11.61a1.05,1.05,0,0,1-1.1-1V536a1.1,1.1,0,0,1,2.19,0v6.12A1.05,1.05,0,0,1,720.29,543.15Zm-253-.62a1.05,1.05,0,0,1-1.1-1V535.4a1.1,1.1,0,0,1,2.19,0v6.12A1.05,1.05,0,0,1,467.26,542.53Zm253-11.61a1.06,1.06,0,0,1-1.1-1v-6.11a1.1,1.1,0,0,1,2.19,0v6.11A1.06,1.06,0,0,1,720.29,530.92Zm-253-.62a1.06,1.06,0,0,1-1.1-1v-6.12a1.1,1.1,0,0,1,2.19,0v6.12A1.06,1.06,0,0,1,467.26,530.3Zm253-11.62a1.05,1.05,0,0,1-1.1-1v-6.12a1.1,1.1,0,0,1,2.19,0v6.12A1.05,1.05,0,0,1,720.29,518.68Zm-253-.62a1.05,1.05,0,0,1-1.1-1v-6.12a1.1,1.1,0,0,1,2.19,0v6.12A1.05,1.05,0,0,1,467.26,518.06Zm253-11.61a1.06,1.06,0,0,1-1.1-1v-2.76a8.64,8.64,0,0,0-.52-3,1,1,0,0,1,.69-1.28,1.1,1.1,0,0,1,1.38.63,10.46,10.46,0,0,1,.64,3.62v2.76A1.06,1.06,0,0,1,720.29,506.45Zm-253-.62a1.06,1.06,0,0,1-1.1-1v-2.14a10.48,10.48,0,0,1,.9-4.26,1.12,1.12,0,0,1,1.42-.56,1,1,0,0,1,.61,1.32,8.66,8.66,0,0,0-.74,3.5v2.14A1.06,1.06,0,0,1,467.26,505.83Zm248.66-10.34a1.16,1.16,0,0,1-.67-.21,10.5,10.5,0,0,0-5.5-1.91,1,1,0,0,1-1-1.07,1.07,1.07,0,0,1,1.16-.95,12.8,12.8,0,0,1,6.7,2.32,1,1,0,0,1,.2,1.42A1.12,1.12,0,0,1,715.92,495.49Zm-243.74-.37a1.1,1.1,0,0,1-.91-.44,1,1,0,0,1,.29-1.41,12.92,12.92,0,0,1,6.84-1.94h0a1,1,0,1,1,0,2,10.55,10.55,0,0,0-5.61,1.59A1.13,1.13,0,0,1,472.18,495.12Zm231-1.76h-6.62a1,1,0,1,1,0-2h6.62a1,1,0,1,1,0,2Zm-13.23,0h-6.61a1,1,0,1,1,0-2H690a1,1,0,1,1,0,2Zm-13.22,0h-6.61a1,1,0,1,1,0-2h6.61a1,1,0,1,1,0,2Zm-13.23,0h-6.61a1,1,0,1,1,0-2h6.61a1,1,0,1,1,0,2Zm-13.22,0H643.7a1,1,0,1,1,0-2h6.61a1,1,0,1,1,0,2Zm-13.22,0h-6.62a1,1,0,1,1,0-2h6.62a1,1,0,1,1,0,2Zm-13.23,0h-6.61a1,1,0,1,1,0-2h6.61a1,1,0,1,1,0,2Zm-13.22,0H604a1,1,0,1,1,0-2h6.61a1,1,0,1,1,0,2Zm-13.22,0H590.8a1,1,0,1,1,0-2h6.62a1,1,0,1,1,0,2Zm-13.23,0h-6.61a1,1,0,1,1,0-2h6.61a1,1,0,1,1,0,2Zm-13.22,0h-6.61a1,1,0,1,1,0-2H571a1,1,0,1,1,0,2Zm-13.23,0h-6.61a1,1,0,1,1,0-2h6.61a1,1,0,1,1,0,2Zm-13.22,0h-6.61a1,1,0,1,1,0-2h6.61a1,1,0,1,1,0,2Zm-13.22,0h-6.62a1,1,0,1,1,0-2h6.62a1,1,0,1,1,0,2Zm-13.23,0h-6.61a1,1,0,1,1,0-2h6.61a1,1,0,1,1,0,2Zm-13.22,0h-6.61a1,1,0,1,1,0-2h6.61a1,1,0,1,1,0,2Zm-13.23,0H485a1,1,0,1,1,0-2h6.61a1,1,0,1,1,0,2Z" class="cls-16"></path><path d="M1085,798.83h-5.9a.9.9,0,1,1,0-1.79H1085a1,1,0,0,1,1,.89A.91.91,0,0,1,1085,798.83Zm-11.76,0h-5.85a.9.9,0,1,1,0-1.79h5.85a.9.9,0,1,1,0,1.79Zm-11.71,0h-5.86a.9.9,0,1,1,0-1.79h5.86a.9.9,0,1,1,0,1.79Zm-11.71,0H1044a.9.9,0,1,1,0-1.79h5.86a.9.9,0,1,1,0,1.79Zm-11.72,0h-5.86a.9.9,0,1,1,0-1.79h5.86a.9.9,0,1,1,0,1.79Zm-11.71,0h-5.86a.9.9,0,1,1,0-1.79h5.86a.9.9,0,1,1,0,1.79Zm-11.72,0h-5.86a.9.9,0,1,1,0-1.79h5.86a.9.9,0,1,1,0,1.79Zm-11.71,0h-5.86a.9.9,0,1,1,0-1.79H1003a.9.9,0,1,1,0,1.79Zm-11.72,0h-5.85a.9.9,0,1,1,0-1.79h5.85a.9.9,0,1,1,0,1.79Zm-11.71,0h-5.91a.93.93,0,0,1-.92-.94,1,1,0,0,1,1-.85h5.81a.9.9,0,1,1,0,1.79Zm109.26-3.43h0a.93.93,0,0,1-.94-.93v-5.39a1,1,0,0,1,1.94,0v5.45A1,1,0,0,1,1088.81,795.4Zm-118.75-.15a.93.93,0,0,1-1-.9v-5.41a1,1,0,0,1,1.94,0v5.41A.94.94,0,0,1,970.06,795.25Zm118.75-10.69a.94.94,0,0,1-1-.9v-5.42a1,1,0,0,1,1.94,0v5.42A.93.93,0,0,1,1088.81,784.56Zm-118.75-.15a.93.93,0,0,1-1-.89V778.1a1,1,0,0,1,1.94,0v5.42A.94.94,0,0,1,970.06,784.41Zm118.75-10.69a.94.94,0,0,1-1-.9V767.4a1,1,0,0,1,1.94,0v5.42A.93.93,0,0,1,1088.81,773.72Zm-118.75-.15a.93.93,0,0,1-1-.89v-5.46a1,1,0,0,1,1.94.07v5.39A.94.94,0,0,1,970.06,773.57Zm115.1-8.82h-5.86a.9.9,0,1,1,0-1.79h5.9a.94.94,0,0,1,.93.94A1,1,0,0,1,1085.16,764.75Zm-11.72,0h-5.85a.9.9,0,1,1,0-1.79h5.85a.9.9,0,1,1,0,1.79Zm-11.71,0h-5.86a.9.9,0,1,1,0-1.79h5.86a.9.9,0,1,1,0,1.79Zm-11.72,0h-5.85a.9.9,0,1,1,0-1.79H1050a.9.9,0,1,1,0,1.79Zm-11.71,0h-5.86a.9.9,0,1,1,0-1.79h5.86a.9.9,0,1,1,0,1.79Zm-11.71,0h-5.86a.9.9,0,1,1,0-1.79h5.86a.9.9,0,1,1,0,1.79Zm-11.72,0H1009a.9.9,0,1,1,0-1.79h5.86a.9.9,0,1,1,0,1.79Zm-11.71,0H997.3a.9.9,0,1,1,0-1.79h5.86a.9.9,0,1,1,0,1.79Zm-11.72,0h-5.86a.9.9,0,1,1,0-1.79h5.86a.9.9,0,1,1,0,1.79Zm-11.71,0h-5.84a1,1,0,0,1-1-.89.92.92,0,0,1,1-.9h5.86a.9.9,0,1,1,0,1.79Z" class="cls-16"></path><path d="M666.65,475.42h-6.52a1,1,0,1,1,0-2h6.48a1.07,1.07,0,0,1,1.12,1A1,1,0,0,1,666.65,475.42Zm-13,0h-6.48a1,1,0,1,1,0-2h6.48a1,1,0,1,1,0,2Zm-13,0h-6.48a1,1,0,1,1,0-2h6.48a1,1,0,1,1,0,2Zm-13,0h-6.48a1,1,0,1,1,0-2h6.48a1,1,0,1,1,0,2Zm-13,0h-6.48a1,1,0,1,1,0-2h6.48a1,1,0,1,1,0,2Zm-13,0h-6.48a1,1,0,1,1,0-2h6.48a1,1,0,1,1,0,2Zm-13,0h-6.49a1,1,0,1,1,0-2h6.49a1,1,0,1,1,0,2ZM576,474.78a1.21,1.21,0,0,1-.54-.14,5.94,5.94,0,0,1-3.28-5.21v-.74a1.1,1.1,0,0,1,2.19,0v.74a3.93,3.93,0,0,0,2.17,3.45,1,1,0,0,1,.42,1.38A1.13,1.13,0,0,1,576,474.78Zm95.66-2.58a1.33,1.33,0,0,1-.38-.07,1,1,0,0,1-.64-1.3,3.75,3.75,0,0,0,.27-1.4v-4.21a1.1,1.1,0,0,1,2.19,0v4.21a5.7,5.7,0,0,1-.41,2.11A1.11,1.11,0,0,1,671.65,472.2Zm-98.39-8.49a1.06,1.06,0,0,1-1.09-1v-6a1.1,1.1,0,0,1,2.19,0v6A1.06,1.06,0,0,1,573.26,463.71ZM672,460.24a1.05,1.05,0,0,1-1.1-1v-6a1.1,1.1,0,0,1,2.19,0v6A1.05,1.05,0,0,1,672,460.24Zm-98.74-8.53a1.05,1.05,0,0,1-1.09-1v-6a1.1,1.1,0,0,1,2.19,0v6A1.05,1.05,0,0,1,573.26,451.71ZM672,448.25a1.06,1.06,0,0,1-1.1-1v-6a1.1,1.1,0,0,1,2.19,0v6A1.06,1.06,0,0,1,672,448.25Zm-98.74-8.53a1.05,1.05,0,0,1-1.09-1v-6a1.1,1.1,0,0,1,2.19,0v6A1.05,1.05,0,0,1,573.26,439.72ZM672,436.25a1.05,1.05,0,0,1-1.1-1v-6a1.1,1.1,0,0,1,2.19,0v6A1.05,1.05,0,0,1,672,436.25Zm-98.74-8.52a1.06,1.06,0,0,1-1.09-1v-6a1.1,1.1,0,0,1,2.19,0v6A1.06,1.06,0,0,1,573.26,427.73ZM672,424.26a1.05,1.05,0,0,1-1.1-1v-6a1.1,1.1,0,0,1,2.19,0v6A1.05,1.05,0,0,1,672,424.26Zm-98.74-8.53a1.05,1.05,0,0,1-1.09-1v-6a1.1,1.1,0,0,1,2.19,0v6A1.05,1.05,0,0,1,573.26,415.73ZM672,412.27a1.06,1.06,0,0,1-1.1-1v-6a1.1,1.1,0,0,1,2.19,0v6A1.06,1.06,0,0,1,672,412.27Zm-98.74-8.53a1.05,1.05,0,0,1-1.09-1v-4.19a5.58,5.58,0,0,1,.42-2.13,1.13,1.13,0,0,1,1.41-.59,1,1,0,0,1,.64,1.31,3.62,3.62,0,0,0-.28,1.41v4.19A1.05,1.05,0,0,1,573.26,403.74ZM672,400.27a1.05,1.05,0,0,1-1.1-1v-.72a3.94,3.94,0,0,0-2.19-3.46,1,1,0,0,1-.42-1.38,1.15,1.15,0,0,1,1.49-.39,6,6,0,0,1,3.31,5.23v.72A1.05,1.05,0,0,1,672,400.27Zm-9.11-5.7H656.4a1,1,0,1,1,0-2h6.49a1,1,0,1,1,0,2Zm-13,0h-6.48a1,1,0,1,1,0-2h6.48a1,1,0,1,1,0,2Zm-13,0h-6.48a1,1,0,1,1,0-2H637a1,1,0,1,1,0,2Zm-13,0h-6.48a1,1,0,1,1,0-2H624a1,1,0,1,1,0,2Zm-13,0h-6.48a1,1,0,1,1,0-2H611a1,1,0,1,1,0,2Zm-13,0h-6.48a1,1,0,1,1,0-2h6.48a1,1,0,1,1,0,2Zm-13,0h-6.46a1.06,1.06,0,0,1-1.11-1,1,1,0,0,1,1.09-1h6.48a1,1,0,1,1,0,2Z" class="cls-16"></path><path d="M1085,848.85h-5.9a.9.9,0,1,1,0-1.8H1085a1,1,0,0,1,1,.9A.92.92,0,0,1,1085,848.85Zm-11.76,0h-5.85a.9.9,0,1,1,0-1.8h5.85a.9.9,0,1,1,0,1.8Zm-11.71,0h-5.86a.9.9,0,1,1,0-1.8h5.86a.9.9,0,1,1,0,1.8Zm-11.71,0H1044a.9.9,0,1,1,0-1.8h5.86a.9.9,0,1,1,0,1.8Zm-11.72,0h-5.86a.9.9,0,1,1,0-1.8h5.86a.9.9,0,1,1,0,1.8Zm-11.71,0h-5.86a.9.9,0,1,1,0-1.8h5.86a.9.9,0,1,1,0,1.8Zm-11.72,0h-5.86a.9.9,0,1,1,0-1.8h5.86a.9.9,0,1,1,0,1.8Zm-11.71,0h-5.86a.9.9,0,1,1,0-1.8H1003a.9.9,0,1,1,0,1.8Zm-11.72,0h-5.85a.9.9,0,1,1,0-1.8h5.85a.9.9,0,1,1,0,1.8Zm-11.71,0h-5.91a.9.9,0,1,1,.1-1.79h5.81a.9.9,0,1,1,0,1.8Zm109.26-3.44h0a.92.92,0,0,1-.94-.92V839.1a1,1,0,0,1,1.94,0v5.44A.94.94,0,0,1,1088.81,845.41Zm-118.75-.14a.93.93,0,0,1-1-.9V839a1,1,0,0,1,1.94,0v5.42A.94.94,0,0,1,970.06,845.27Zm118.75-10.7a.94.94,0,0,1-1-.89v-5.42a1,1,0,0,1,1.94,0v5.42A.93.93,0,0,1,1088.81,834.57Zm-118.75-.14a.93.93,0,0,1-1-.9v-5.42a1,1,0,0,1,1.94,0v5.42A.94.94,0,0,1,970.06,834.43Zm118.75-10.7a.94.94,0,0,1-1-.89v-5.42a1,1,0,0,1,1.94,0v5.42A.93.93,0,0,1,1088.81,823.73Zm-118.75-.14a.93.93,0,0,1-1-.9v-5.45a1,1,0,0,1,1.94.07v5.38A.94.94,0,0,1,970.06,823.59Zm115.1-8.83h-5.86a.9.9,0,1,1,0-1.8h5.9a.93.93,0,0,1,.93.93A1,1,0,0,1,1085.16,814.76Zm-11.72,0h-5.85a.9.9,0,1,1,0-1.8h5.85a.9.9,0,1,1,0,1.8Zm-11.71,0h-5.86a.9.9,0,1,1,0-1.8h5.86a.9.9,0,1,1,0,1.8Zm-11.72,0h-5.85a.9.9,0,1,1,0-1.8H1050a.9.9,0,1,1,0,1.8Zm-11.71,0h-5.86a.9.9,0,1,1,0-1.8h5.86a.9.9,0,1,1,0,1.8Zm-11.71,0h-5.86a.9.9,0,1,1,0-1.8h5.86a.9.9,0,1,1,0,1.8Zm-11.72,0H1009a.9.9,0,1,1,0-1.8h5.86a.9.9,0,1,1,0,1.8Zm-11.71,0H997.3a.9.9,0,1,1,0-1.8h5.86a.9.9,0,1,1,0,1.8Zm-11.72,0h-5.86a.9.9,0,1,1,0-1.8h5.86a.9.9,0,1,1,0,1.8Zm-11.71,0h-5.84a1,1,0,0,1-1-.9.93.93,0,0,1,1-.9h5.86a.9.9,0,1,1,0,1.8Z" class="cls-16"></path><path d="M622.79,811.17h-5.85a.9.9,0,1,1,0-1.8h5.81a1,1,0,0,1,1,.9A.93.93,0,0,1,622.79,811.17Zm-11.66,0h-5.8a.9.9,0,1,1,0-1.8h5.8a.9.9,0,1,1,0,1.8Zm-11.61,0h-5.81a.9.9,0,1,1,0-1.8h5.81a.9.9,0,1,1,0,1.8Zm-11.61,0H582.1a.9.9,0,1,1,0-1.8h5.81a.9.9,0,1,1,0,1.8Zm-11.62,0h-5.8a.9.9,0,1,1,0-1.8h5.8a.9.9,0,1,1,0,1.8Zm-11.61,0h-5.81a.9.9,0,1,1,0-1.8h5.81a.9.9,0,1,1,0,1.8Zm-11.61,0h-5.81a.9.9,0,1,1,0-1.8h5.81a.9.9,0,1,1,0,1.8Zm-11.62,0h-5.8a.9.9,0,1,1,0-1.8h5.8a.9.9,0,1,1,0,1.8Zm-11.61,0H524a.9.9,0,1,1,0-1.8h5.81a.9.9,0,1,1,0,1.8Zm-11.61,0h-5.81a.9.9,0,1,1,0-1.8h5.81a.9.9,0,1,1,0,1.8Zm-11.62,0h-5.8a.9.9,0,1,1,0-1.8h5.8a.9.9,0,1,1,0,1.8Zm-11.61,0h-5.81a.9.9,0,1,1,0-1.8H495a.9.9,0,1,1,0,1.8Zm-11.61,0h-5.81a.9.9,0,1,1,0-1.8h5.81a.9.9,0,1,1,0,1.8Zm-11.62,0H466a.9.9,0,1,1,0-1.8h5.8a.9.9,0,1,1,0,1.8Zm-11.61,0h-5.81a.9.9,0,1,1,0-1.8h5.81a.9.9,0,1,1,0,1.8Zm-11.61,0h-4.64c-.43,0-.86,0-1.28-.07a.92.92,0,0,1-.85-1,1,1,0,0,1,1.08-.79,9.11,9.11,0,0,0,1.05.06h4.64a.9.9,0,1,1,0,1.8Zm179.71-1.55a1,1,0,0,1-.81-.4.86.86,0,0,1,.27-1.25,8.43,8.43,0,0,0,3.27-3.69,1,1,0,0,1,1.27-.48.87.87,0,0,1,.52,1.17,10.26,10.26,0,0,1-4,4.49A1,1,0,0,1,628.26,809.62ZM437.5,809a1,1,0,0,1-.63-.21,9.89,9.89,0,0,1-3.4-4.89.89.89,0,0,1,.66-1.11,1,1,0,0,1,1.2.62,8.16,8.16,0,0,0,2.8,4,.85.85,0,0,1,.11,1.27A1,1,0,0,1,437.5,809Zm195.14-8.74a.93.93,0,0,1-1-.9V794a1,1,0,0,1,1.94,0v5.37A.93.93,0,0,1,632.64,800.24Zm-198.62-1a.93.93,0,0,1-1-.89v-5.38a1,1,0,0,1,1.94,0v5.38A.94.94,0,0,1,434,799.19Zm198.62-9.69a.93.93,0,0,1-1-.9v-5.37a1,1,0,0,1,1.94,0v5.37A.93.93,0,0,1,632.64,789.5Zm-198.62-1a.93.93,0,0,1-1-.9v-5.37a1,1,0,0,1,1.94,0v5.37A.94.94,0,0,1,434,788.45Zm198.62-9.7a.93.93,0,0,1-1-.9v-5.37a1,1,0,0,1,1.94,0v5.37A.93.93,0,0,1,632.64,778.75ZM434,777.7a.93.93,0,0,1-1-.89v-5.38a1,1,0,0,1,1.94,0v5.38A.94.94,0,0,1,434,777.7ZM632.64,768a.93.93,0,0,1-1-.9v-5.37a1,1,0,0,1,1.94,0v5.37A.93.93,0,0,1,632.64,768ZM434,767a.93.93,0,0,1-1-.9v-5.37a1,1,0,0,1,1.94,0v5.37A.94.94,0,0,1,434,767Zm198.62-9.7a.93.93,0,0,1-1-.9V751a1,1,0,0,1,1.94,0v5.37A.93.93,0,0,1,632.64,757.26Zm-198.62-1a.93.93,0,0,1-1-.89V750a1,1,0,0,1,1.94,0v5.37A.94.94,0,0,1,434,756.21Zm198.62-9.69a.93.93,0,0,1-1-.9v-5.37a1,1,0,0,1,1.94,0v5.37A.93.93,0,0,1,632.64,746.52Zm-198.62-1a.93.93,0,0,1-1-.9V739.2a1,1,0,0,1,1.94,0v5.37A.94.94,0,0,1,434,745.47Zm198.62-9.7a.93.93,0,0,1-1-.9V729.5a1,1,0,0,1,1.94,0v5.37A.93.93,0,0,1,632.64,735.77Zm-198.62-1a.94.94,0,0,1-1-.9v-5.37a1,1,0,0,1,1.94,0v5.37A1,1,0,0,1,434,734.73ZM632.64,725a.93.93,0,0,1-1-.9v-5.37a1,1,0,0,1,1.94,0v5.37A.93.93,0,0,1,632.64,725ZM434,724a.93.93,0,0,1-1-.9v-5.37a1,1,0,0,1,1.94,0v5.37A.94.94,0,0,1,434,724Zm198.62-9.7a.93.93,0,0,1-1-.89V708a1,1,0,0,1,1.94,0v5.38A.93.93,0,0,1,632.64,714.28Zm-198.62-1a.94.94,0,0,1-1-.9V707a1,1,0,0,1,1.94,0v5.37A1,1,0,0,1,434,713.24Zm198.62-9.7a.93.93,0,0,1-1-.9v-5.37a1,1,0,0,1,1.94,0v5.37A.93.93,0,0,1,632.64,703.54Zm-198.62-1a.93.93,0,0,1-1-.9v-5.37a1,1,0,0,1,1.94,0v5.37A.94.94,0,0,1,434,702.49Zm198.62-9.7a.93.93,0,0,1-1-.89v-5.38a1,1,0,0,1,1.94,0v5.38A.93.93,0,0,1,632.64,692.79Zm-198.62-1a.93.93,0,0,1-1-.89v-5.37a1,1,0,0,1,1.94,0v5.37A.94.94,0,0,1,434,691.74Zm198.23-9.66a1,1,0,0,1-.93-.65,8.16,8.16,0,0,0-2.8-4,.85.85,0,0,1-.12-1.26,1,1,0,0,1,1.37-.1,10,10,0,0,1,3.42,4.88.89.89,0,0,1-.67,1.11A1.24,1.24,0,0,1,632.25,682.08Zm-197.47-1a1.15,1.15,0,0,1-.37-.06.89.89,0,0,1-.53-1.18,10.3,10.3,0,0,1,4-4.49,1,1,0,0,1,1.34.25.86.86,0,0,1-.26,1.25,8.4,8.4,0,0,0-3.29,3.68A1,1,0,0,1,434.78,681.09Zm189.12-5.56h-.12c-.34,0-.69,0-1,0h-4.66a.9.9,0,1,1,0-1.8h4.66c.42,0,.84,0,1.26.07a.92.92,0,0,1,.85,1A1,1,0,0,1,623.9,675.53Zm-11.62-.06h-5.8a.9.9,0,1,1,0-1.8h5.8a.9.9,0,1,1,0,1.8Zm-11.61,0h-5.81a.9.9,0,1,1,0-1.8h5.81a.9.9,0,1,1,0,1.8Zm-11.61,0h-5.81a.9.9,0,1,1,0-1.8h5.81a.9.9,0,1,1,0,1.8Zm-11.62,0h-5.8a.9.9,0,1,1,0-1.8h5.8a.9.9,0,1,1,0,1.8Zm-11.61,0H560a.9.9,0,1,1,0-1.8h5.81a.9.9,0,1,1,0,1.8Zm-11.61,0h-5.81a.9.9,0,1,1,0-1.8h5.81a.9.9,0,1,1,0,1.8Zm-11.62,0h-5.8a.9.9,0,1,1,0-1.8h5.8a.9.9,0,1,1,0,1.8Zm-11.61,0h-5.81a.9.9,0,1,1,0-1.8H531a.9.9,0,1,1,0,1.8Zm-11.61,0h-5.81a.9.9,0,1,1,0-1.8h5.81a.9.9,0,1,1,0,1.8Zm-11.62,0H502a.9.9,0,1,1,0-1.8h5.8a.9.9,0,1,1,0,1.8Zm-11.61,0h-5.81a.9.9,0,1,1,0-1.8h5.81a.9.9,0,1,1,0,1.8Zm-11.61,0h-5.81a.9.9,0,1,1,0-1.8h5.81a.9.9,0,1,1,0,1.8Zm-11.62,0h-5.8a.9.9,0,1,1,0-1.8h5.8a.9.9,0,1,1,0,1.8Zm-11.61,0H455.5a.9.9,0,1,1,0-1.8h5.81a.9.9,0,1,1,0,1.8Zm-11.61,0h-5.79a1,1,0,0,1-1-.9.94.94,0,0,1,1-.9h5.81a.9.9,0,1,1,0,1.8Z" class="cls-16"></path><rect rx="13.66" height="135.7" width="253.03" y="510.79" x="435.37" class="cls-18"></rect><path d="M533.33,551.73v53.83c0,3.37,4,5.38,7.08,3.53l44.22-26.91a4.06,4.06,0,0,0,0-7.07l-44.22-26.92C537.37,546.34,533.33,548.36,533.33,551.73Z" class="cls-5"></path><path d="M448.52,634.25a4.55,4.55,0,1,1,4.54,4.2A4.38,4.38,0,0,1,448.52,634.25Z" class="cls-4"></path><path d="M659.68,635.38H454.28a1.18,1.18,0,0,1-1.22-1.13h0a1.18,1.18,0,0,1,1.22-1.13h205.4a1.18,1.18,0,0,1,1.22,1.13h0A1.18,1.18,0,0,1,659.68,635.38Z" class="cls-4"></path><rect height="180.8" width="130.91" y="674.57" x="672" class="cls-21"></rect><path d="M750,732.66h-1.79v-7.45a5.06,5.06,0,0,1,5.23-4.85h22.15a3.4,3.4,0,0,0,3.33-2.38l3.51-12.32a3,3,0,0,0-.61-2.76,3.54,3.54,0,0,0-2.73-1.24H750.22V700h28.89a5.35,5.35,0,0,1,4.15,1.88,4.54,4.54,0,0,1,.92,4.2l-3.5,12.32a5.2,5.2,0,0,1-5.07,3.61H753.46a3.32,3.32,0,0,0-3.44,3.19Z" class="cls-13"></path><rect rx="6.99" height="13.98" width="49.69" y="693.85" x="726.96" class="cls-5"></rect><path d="M749.12,763.58h0A4.75,4.75,0,0,1,744.2,759V731.42a4.75,4.75,0,0,1,4.92-4.56h0a4.76,4.76,0,0,1,4.93,4.56V759A4.76,4.76,0,0,1,749.12,763.58Z" class="cls-13"></path><path d="M937.57,823.46s3.39,9.66,3.1,11.86-2.42,9.75-3.94,11.69-2.27-7.87-3.47-9.34-.25,3.69-1.1,4.16-2.61-3.79-3.37-5.3,1.86-7.07,1.86-10.95S937.57,823.46,937.57,823.46Z" class="cls-7"></path><path d="M857.89,746.78c-.94-11.07,12.06-18.66,22.32-12.91l.63.37c15.36,9.15,48.51,51.84,50.79,56.12s9,38.3,9,38.3-8.32,2.82-12.21-.11c0,0-13.5-32.27-15.5-33.88s-54-28.6-54.42-38.72C858.4,753.28,858.17,750.06,857.89,746.78Z" class="cls-10"></path><path d="M950.66,996.67s6.2,5.23,5,9-6.8,6.19-7.56,10.74-3.77,7-6.49,7h-13s-2-3.2,2.83-4.16,6.66-6.31,6.36-11.26a81.35,81.35,0,0,1,.45-11.56l10.28-2.21Z" class="cls-22"></path><path d="M874.66,1010.2s1.12,11.9-1.6,13.14l-34.81-.06s0-3.72,5.59-4.55,15.41-3.85,17.08-10.59S874.66,1010.2,874.66,1010.2Z" class="cls-22"></path><path d="M845.28,842.05s1.84,20.87,4,46c2.94,34.07,6.46,75.92,6.81,83.85.6,13.77,3,35.79,3,35.79s5.74,5.23,17.23,3c0,0,10.23-31.44,13.16-64.7,0-.55.09-1.1.13-1.65,2.72-33.86,7-105.16,7-105.16Z" class="cls-5"></path><path d="M845.28,842.05s1.84,20.87,4,46l40.22,58c0-.55.09-1.1.13-1.65,2.72-33.86,7-105.16,7-105.16Z" class="cls-23"></path><path d="M853.66,844.53s33.09,75.57,54.85,111.08S937.06,1001,937.06,1001s12.47-4.54,13.6-7.64c0,0-8.32-68.55-22.89-85.27-8.23-9.44-17.9-37.78-18.36-47.69s-2.94-29.53-2.94-29.53Z" class="cls-5"></path><path d="M882.19,731.18S860,741.58,847,738.11a29.87,29.87,0,0,1,8.6-6.63c-.5-2.39-.89-4.46-1.13-6.22a53.85,53.85,0,0,1-.68-6.36l8.5-6.45,8.06-6.16A29.92,29.92,0,0,0,882.19,731.18Z" class="cls-7"></path><path d="M904.21,836.88c-9,5-17.42,8.78-27.34,10.9-11.7,2.57-26.07,1.81-30.88,2.49a2.12,2.12,0,0,1-1.4-.33c-.38-.18-2.5-13.38-4.63-30-.09-.67-.19-1.35-.23-2l0-.22c-.82-6.52-1.55-13.36-2.18-20.22-.51-5.33-.93-10.61-1.22-15.57-.37-6.2-.52-11.9-.37-16.59.07-2.14.2-4.06.41-5.74,1.27-9.73,6.28-16.68,11-21.86l3.92-4.13a22.85,22.85,0,0,0,13.56-3.2c4.79-2.92,9.95-6.05,10.93-5.53,7.34,3.72,13.31,13.34,17.58,26.05a136.25,136.25,0,0,1,5.52,24.41c.39,2.73.71,5.53,1,8.32,0,.51.09,1,.13,1.54.58,7.62,1.52,14.76,2.56,21.13,1.4,8.6,3,15.81,4.13,20.88.56,2.59,1,4.58,1.25,6C908.12,834.4,905.42,836.19,904.21,836.88Z" class="cls-13"></path><path d="M870.68,712.75s-5.46,9.65-16.17,12.51a53.85,53.85,0,0,1-.68-6.36l8.5-6.45Z" class="cls-12"></path><path d="M849.88,718.69s21.43,2.84,23.17-9.34,5.68-20-7.92-22.35-16.93,2-18.6,6S844.36,717.64,849.88,718.69Z" class="cls-7"></path><path d="M880.3,685.27c.19-.21.63-.38,1.62-.45a4.16,4.16,0,0,0-1.86-.45c-.24-1.28-1-3.53-3.42-4a2.8,2.8,0,0,1,1.49,2c-2.81-2.57-8.76-4.37-25.1-2.88-21.53,2-14.15,14.62-11.33,16.09s9.77-2.83,15-2.54,6.34,7.22,8.13,8.14,1.05-.75,3.42-1.79,2.67,2.61,2,5S873,709.8,873,709.8l3.25-3.37c3.24-3.36,6.07-17.41,4.5-20.37Z" class="cls-6"></path><path d="M873.5,766.36s-18.07,12.71-37.21,15.5c-.37-6.2-.52-11.9-.37-16.59Z" class="cls-10"></path><path d="M762.57,750c-.28-.28-4-11.67-10.33-10.84-4.16.54-11,2.77-9.15,7.83.71,2,13.37,8.85,13.37,8.85Z" class="cls-7"></path><path d="M875.73,741.79c10.3,5.7,9.46,19.9-1.55,24.31l-.68.26c-17,6.3-73.78,6.59-78.87,5.83s-39-15.37-39-15.37,2.33-7.91,7.16-9.15c0,0,36.25,8.5,38.83,7.92s56.46-24.16,65.63-18.64C869.71,738.41,872.67,740.1,875.73,741.79Z" class="cls-13"></path><path d="M1258,367.79h-45.23a3.34,3.34,0,0,1-3.45-3.2h0a3.34,3.34,0,0,1,3.45-3.19H1258a3.35,3.35,0,0,1,3.46,3.19h0A3.35,3.35,0,0,1,1258,367.79Z" class="cls-1"></path><path d="M1258,380.29h-45.23a3.34,3.34,0,0,1-3.45-3.2h0a3.34,3.34,0,0,1,3.45-3.2H1258a3.35,3.35,0,0,1,3.46,3.2h0A3.35,3.35,0,0,1,1258,380.29Z" class="cls-1"></path><path d="M1258,393.1h-45.23a3.33,3.33,0,0,1-3.45-3.19h0a3.34,3.34,0,0,1,3.45-3.2H1258a3.35,3.35,0,0,1,3.46,3.2h0A3.34,3.34,0,0,1,1258,393.1Z" class="cls-1"></path><path d="M1080.84,694.83H973.17a4.44,4.44,0,0,1-4.59-4.24h0a4.44,4.44,0,0,1,4.59-4.24h107.67a4.43,4.43,0,0,1,4.58,4.24h0A4.43,4.43,0,0,1,1080.84,694.83Z" class="cls-1"></path><path d="M554.51,403.77H446.83a4.43,4.43,0,0,1-4.58-4.24h0a4.44,4.44,0,0,1,4.58-4.25H554.51a4.44,4.44,0,0,1,4.58,4.25h0A4.43,4.43,0,0,1,554.51,403.77Z" class="cls-1"></path><path d="M1080.84,736.9H973.17a4.44,4.44,0,0,1-4.59-4.24h0a4.44,4.44,0,0,1,4.59-4.24h107.67a4.43,4.43,0,0,1,4.58,4.24h0A4.43,4.43,0,0,1,1080.84,736.9Z" class="cls-1"></path><path d="M1080.84,715.86H952.06a4.43,4.43,0,0,1-4.58-4.24h0a4.43,4.43,0,0,1,4.58-4.24h128.78a4.43,4.43,0,0,1,4.58,4.24h0A4.43,4.43,0,0,1,1080.84,715.86Z" class="cls-1"></path><rect rx="4.24" height="8.48" width="67.73" y="421.95" x="458.3" class="cls-1"></rect><path d="M438.18,426.19a4.6,4.6,0,1,1,4.59,4.24A4.42,4.42,0,0,1,438.18,426.19Z" class="cls-1"></path><rect rx="4.24" height="8.48" width="79.56" y="438.83" x="458.3" class="cls-1"></rect><path d="M438.18,443.07a4.6,4.6,0,1,1,4.59,4.24A4.42,4.42,0,0,1,438.18,443.07Z" class="cls-1"></path><rect rx="4.24" height="8.48" width="67.73" y="457.15" x="458.3" class="cls-1"></rect><path d="M438.18,461.39a4.6,4.6,0,1,1,4.59,4.24A4.42,4.42,0,0,1,438.18,461.39Z" class="cls-1"></path><path d="M633.06,439.93a17.58,17.58,0,0,1-2.42.14,16.74,16.74,0,0,1-11.38-4.51,14.19,14.19,0,0,1,.27-21.15h0a17.12,17.12,0,0,1,22.86.24,14.19,14.19,0,0,1-.26,21.16A16.58,16.58,0,0,1,633.06,439.93Zm-11.67-23.76a11.85,11.85,0,0,0-.22,17.67,14.3,14.3,0,0,0,19.1.21,11.87,11.87,0,0,0,.22-17.68,14.31,14.31,0,0,0-19.1-.2Z" class="cls-16"></path><polygon points="605.36 449.85 603.5 448.09 619.28 433.82 621.15 435.58 605.36 449.85" class="cls-16"></polygon><path d="M599,453.93h0a2.09,2.09,0,0,1,0-3.11l9.3-8.4a2.51,2.51,0,0,1,3.36,0h0a2.08,2.08,0,0,1,0,3.11L602.31,454A2.51,2.51,0,0,1,599,453.93Z" class="cls-16"></path><path d="M1221.67,1023.66h0a5.31,5.31,0,0,1-4.84-3.09l-124.24-350c-.61-1.71.57-3.11,2.64-3.12h0a5.32,5.32,0,0,1,4.83,3.08l124.24,350C1224.91,1022.25,1223.73,1023.64,1221.67,1023.66Z" class="cls-17"></path><path d="M1321.8,1023.12h0A5.32,5.32,0,0,1,1317,1020L1192.72,670c-.61-1.71.57-3.11,2.64-3.12h0a5.32,5.32,0,0,1,4.83,3.08l124.24,350C1325,1021.71,1323.86,1023.11,1321.8,1023.12Z" class="cls-17"></path><path d="M1214,718.81l-100.54.54a5,5,0,0,1-4.57-2.91h0c-.57-1.61.55-2.93,2.49-3l100.55-.53a5,5,0,0,1,4.56,2.9h0C1217,717.47,1215.92,718.8,1214,718.81Z" class="cls-17"></path><path d="M1235.68,779.92l-100.55.54a5.05,5.05,0,0,1-4.57-2.91h0c-.57-1.61.55-2.94,2.49-2.95l100.55-.54a5,5,0,0,1,4.56,2.91h0C1238.73,778.58,1237.61,779.91,1235.68,779.92Z" class="cls-17"></path><path d="M1256.57,838.77l-100.55.54a5,5,0,0,1-4.56-2.91h0c-.58-1.61.54-2.93,2.48-2.94l100.55-.54a5,5,0,0,1,4.56,2.91h0C1259.63,837.44,1258.51,838.76,1256.57,838.77Z" class="cls-17"></path><path d="M1280.09,905l-100.55.54a5,5,0,0,1-4.56-2.91h0c-.58-1.61.54-2.93,2.48-2.95l100.55-.53a5,5,0,0,1,4.56,2.9h0C1283.14,903.7,1282,905,1280.09,905Z" class="cls-17"></path><path d="M1304.71,974.38l-100.55.54a5,5,0,0,1-4.57-2.91h0c-.57-1.61.55-2.94,2.49-3l100.55-.53a5,5,0,0,1,4.56,2.9h0C1307.76,973,1306.64,974.37,1304.71,974.38Z" class="cls-17"></path><path d="M1088.25,510.28h0a1.47,1.47,0,0,1-1.71-1.07l-1.61-7.69a1.36,1.36,0,0,1,1.16-1.58h0a1.46,1.46,0,0,1,1.71,1.07l1.61,7.69A1.36,1.36,0,0,1,1088.25,510.28Z" class="cls-17"></path><polygon points="1086.19 497.99 1085.21 498.17 1082.88 487.05 1083.87 486.88 1086.19 497.99" class="cls-17"></polygon><path d="M1083.87,424.32s-.95-7.66-2.95-10.59-9.59-4.8-10.07-4.37c-1.48,1.33,4.39,6,4.62,7.76s-3,.54-1.44,3.92c1.3,2.85,5.59,6.55,5.59,6.55Z" class="cls-7"></path><path d="M1080.22,423.46c2.76-2,3.35-2,3.35-2s25.57,20.5,28.06,22.32,40.89,12.13,40.89,12.13l6.1,28.88s-52-23.22-58.17-28c-10.26-7.83-23.21-29.74-23.21-29.74A9.17,9.17,0,0,1,1080.22,423.46Z" class="cls-24"></path><path d="M1153.34,701s-.44,9.87-2.49,12.27l-28.5.15c.2-1,.32-3.37,4.26-4a19,19,0,0,0,13.84-10.1C1143.63,692.94,1153.34,701,1153.34,701Z" class="cls-25"></path><path d="M1209.27,699.61s2,13.12-.71,13.35c-.36,0-11.49.19-16.31.27-5.66.08-15-.1-15-.1a1.38,1.38,0,0,1-1.34-2.06,6,6,0,0,1,4.28-2.54c5-.89,13.23-4.26,16.13-10.4C1199.4,691.68,1209.27,699.61,1209.27,699.61Z" class="cls-25"></path><path d="M1138.52,565.23s7.93,25.66,30.64,70.21,23.69,66,23.69,66a21.41,21.41,0,0,0,8,.68,22.64,22.64,0,0,0,8.42-2.53s-1.47-53-12.2-75.51-12.92-84-12.92-84Z" class="cls-10"></path><path d="M1125.8,543.16a592.67,592.67,0,0,0,6.8,88.5c7.43,48.78,4,71.46,4,71.46s2,1.33,8,1.31c7.09,0,10.72-2.74,10.72-2.74s10.63-48.8,7.58-73.21,14.57-83.78,14.57-83.78Z" class="cls-17"></path><path d="M1160.91,450.19l-8.39,5.75-12.13-2.36c.16-1,1-5.27,1.69-9.11.05-.23.09-.45.13-.67l1.17-6.08,11.33-5.22,4.22-1.95c0,.07-.33,3.63-.37,4.15A31.38,31.38,0,0,0,1160.91,450.19Z" class="cls-7"></path><path d="M1184.94,548.06c-2.74,11.61-61.47,6.52-60.7-.57,0-.24.18-3.52.39-7.94.45-9.57,1.13-24.51,1.21-25.68,0,0,0,0,0-.06,1.06-9.87,2.07-19.52,2.14-25.83a83.15,83.15,0,0,1,2-16.13,123.58,123.58,0,0,1,3.29-12.26,13.49,13.49,0,0,1,4-6,14.9,14.9,0,0,1,4.58-2.7,13.83,13.83,0,0,1,1.42-.46c6.91-1.85,16.47-4.15,19.06-3.45,7,1.91,12.24,13.35,15.93,27.92C1185.14,502.18,1186.74,540.49,1184.94,548.06Z" class="cls-5"></path><path d="M1157.71,434.86c-2.49,4.4-11.76,8.21-15.63,9.61.05-.23.09-.45.13-.67l1.17-6.08,11.33-5.22C1157.21,432.46,1158.73,433.05,1157.71,434.86Z" class="cls-26"></path><path d="M1137.87,437.11s20.44,5.89,24.21-5.94,9-19-3.93-23.3-16.88-.45-19.17,3.22S1132.65,435.27,1137.87,437.11Z" class="cls-7"></path><path d="M1139.78,410s1.3,13.77,4.38,13.17,5.87-1,5.42,3.11-4.72,8.94,4.76,9.67,23.12-21.89,20.52-26.18C1167.34,397.36,1128.91,394.86,1139.78,410Z" class="cls-25"></path><path d="M1124.63,539.55c.45-9.57,1.13-24.51,1.21-25.68,0,0,0,0,0-.06l34.7-19.19S1161.89,539.42,1124.63,539.55Z" class="cls-24"></path><path d="M1097.06,499.39s-7-4.42-8.39-4.8-5.72-.8-5.93-.48-.8,1.3,0,1.63,1.72.21,1.44.44-3.17-1-3.84.33-1.25,6,2.14,7.43,11.73.13,12.33.3C1099.87,505.61,1097.06,499.39,1097.06,499.39Z" class="cls-7"></path><path d="M1097,498.19s34.41,5.42,37.46,4c4.87-2.19-1.89-34.49-1.89-34.49s-.29-7.32,9-9.05c8-1.5,15.78,4.06,15.78,4.06s7,5.84,6.15,12.31c-2,14.35-5.1,43.52-15.48,48-13.37,5.76-52.08-16-52.08-16a6,6,0,0,1-1.1-4.17A9.46,9.46,0,0,1,1097,498.19Z" class="cls-5"></path><path d="M1073.87,420.65s-2.21-4-2.56-4.81.51-.6,1.36-.17,2,2.77,3.31,2.49C1077,417.93,1073.87,420.65,1073.87,420.65Z" class="cls-7"></path></g></g></svg>