<?xml version="1.0" standalone="no"?><!DOCTYPE svg PUBLIC "-//W3C//DTD SVG 1.1//EN" "http://www.w3.org/Graphics/SVG/1.1/DTD/svg11.dtd"><svg t="1652737331511" class="icon" viewBox="0 0 1024 1024" version="1.1" xmlns="http://www.w3.org/2000/svg" p-id="57939" xmlns:xlink="http://www.w3.org/1999/xlink" width="128" height="128"><defs><style type="text/css"></style></defs><path d="M946.4 168c-0.1-0.3-0.3-0.7-0.4-1-0.1-0.3-0.3-0.6-0.4-0.8-3.7-8.2-8.7-15.4-15-21.7-2.9-2.9-6.3-5.8-10.2-8.4-0.1-0.1-0.2-0.1-0.3-0.2-0.8-0.5-1.6-1.1-2.4-1.6-35.6-22.6-93.9-18.3-166.7 12.6-78.3 33.3-162.3 92.6-236.8 167.1l-4.3 4.3-154.1 10.3-197.1 197.1 184.6 49.4c-3.7 9.6-6.7 17.9-9 24.7l-4.4 12.9 50.7 50.7-4.3 4.3c-15.9-13.5-30.7-21.8-45.4-25.9-18.6-5.2-46.3-5.7-73.4 21.4-26.4 26.5-46.3 68.7-59 125.5-9.2 41-11.1 74.5-11.2 75.9l-1.3 24.5 24.5-1.3c1.4-0.1 34.9-2 75.9-11.2 56.8-12.7 99-32.5 125.5-59 27-27.1 26.6-54.9 21.4-73.4-4.1-14.7-12.5-29.4-26-45.3l4.3-4.3 50.7 50.6 12.9-4.4c6.7-2.3 15-5.2 24.5-8.9l49.4 184.6 197.1-197.1 10.3-154.1c1.5-1.5 3-2.9 4.4-4.4 74.5-74.5 133.8-158.6 167.1-236.8 28.1-66 34.3-120 18.4-156.1zM243.7 503l131.5-131.6 92.4-6.1c-51 61.5-85.1 122.3-106.8 169.1L243.7 503z m137.1 283.3c-20.1 20.1-55.8 36.4-103.3 47.1-16.4 3.7-31.6 6.1-43.6 7.7 1.6-12 4-27.2 7.7-43.6 10.7-47.5 27-83.2 47.1-103.3 8.8-8.9 16.2-11.4 22.5-11.4 2.9 0 5.5 0.5 7.9 1.2 7.6 2.1 16.3 7.1 26 14.9l-10.6 10.6c-8.6 8.6-8.6 22.5 0 31.1 4.3 4.3 10 6.4 15.6 6.4s11.2-2.2 15.5-6.4l10.6-10.6c7.7 9.7 12.7 18.3 14.8 25.9 2.1 7.8 2.7 17.5-10.2 30.4z m322.7-86.4L572 831.4l-31.4-117.1c46.8-21.7 107.6-55.8 169-106.7l-6.1 92.3zM730 529.8c-41.4 41.4-88.9 78.2-141.2 109.4-30.2 18-57.8 31.7-81.2 41.9-1.2 0.4-2.4 0.9-3.6 1.5-11 4.7-21.1 8.7-30 12l-31.2-31.2 148.8-148.8c8.6-8.6 8.6-22.5 0-31.1-8.6-8.6-22.5-8.6-31.1 0L411.7 632.3l-31.2-31.2c3.3-9 7.3-19.2 12.1-30.3 0.6-1.1 1.1-2.3 1.6-3.6 10.2-23.4 23.9-50.9 41.9-80.9 31.2-52.3 68-99.8 109.4-141.1 68.4-68.4 144.7-123 215.9-154.7 10.3 31.2 27.6 59.5 50.9 82.7 19.9 19.9 43.8 35.7 69.9 46.3-32 69.6-85.6 143.7-152.2 210.3z m163.6-253.3c-18.7-8.2-35.6-19.8-50.3-34.5-17.7-17.6-31.1-39.1-39.3-62.7 37.8-14.3 68.4-17.7 86.3-9.9 3.5 1.6 6.6 3.7 9.2 6.3 2.5 2.5 4.5 5.5 6.1 8.8 8.4 18.7 4.2 51.4-12 92z" p-id="57940" fill="#20b3b1"></path><path d="M668.5 326.4c-21.4 0-41.5 8.4-56.6 23.5-31.2 31.2-31.2 82.1 0 113.3 15.6 15.6 36.1 23.4 56.6 23.4s41-7.8 56.6-23.4c31.2-31.2 31.2-82.1 0-113.3-15.1-15.2-35.2-23.5-56.6-23.5z m25.6 105.8c-14.1 14.1-37 14.1-51.1 0-14.1-14.1-14.1-37 0-51.1 6.8-6.8 15.9-10.6 25.5-10.6s18.7 3.7 25.6 10.6c14.1 14.1 14.1 37 0 51.1z" p-id="57941" fill="#20b3b1"></path></svg>