<svg xmlns:xlink="http://www.w3.org/1999/xlink" xmlns="http://www.w3.org/2000/svg" version="1.1" viewBox="0 0 1024 1024" height="1024px" width="1024px">
    <title>赞</title>
    <defs>
        <linearGradient id="linearGradient-1" y2="94.9598849%" x2="50%" y1="0.455533649%" x1="50%">
            <stop offset="0%" stop-color="#9ED7FC"></stop>
            <stop offset="100%" stop-color="#DDEBF8"></stop>
        </linearGradient>
        <linearGradient id="linearGradient-2" y2="94.9598849%" x2="50%" y1="0.455533649%" x1="50%">
            <stop offset="0%" stop-color="#9ED7FC"></stop>
            <stop offset="100%" stop-color="#DDEBF8"></stop>
        </linearGradient>
        <linearGradient id="linearGradient-3" y2="94.9598849%" x2="50%" y1="0.455533649%" x1="50%">
            <stop offset="0%" stop-color="#9ED7FC"></stop>
            <stop offset="100%" stop-color="#DDEBF8"></stop>
        </linearGradient>
        <linearGradient id="linearGradient-4" y2="94.9598849%" x2="50%" y1="0.455533649%" x1="50%">
            <stop offset="0%" stop-color="#9ED7FC"></stop>
            <stop offset="100%" stop-color="#DDEBF8"></stop>
        </linearGradient>
    </defs>
    <g fill-rule="evenodd" fill="none" stroke-width="1" stroke="none" id="赞">
        <g fill-rule="nonzero" transform="translate(112.000000, 137.000000)">
            <g transform="translate(175.000000, 750.000000)" id="脚">
                <path fill="#FFFFFF" d="M60.5,3 C92.0686275,3 118,21.1258741 118,43.5 C118,65.8741259 92.0686275,84 60.5,84 C28.6495098,84 3,65.8741259 3,43.5 C3,21.1258741 28.6495098,3 60.5,3 L60.5,3 Z"></path>
                <path fill="#000000" id="脚备份" d="M60.5,1 C49.7406859,1 39.6214476,2.97963019 30.850832,6.46902806 L29.170324,7.16312168 C11.7058084,14.6464057 -3.55271368e-14,28.2399424 -3.55271368e-14,44 C-3.55271368e-14,68.0153258 27.1808339,87 60.5,87 C93.6325601,87 121,67.9495671 121,44 C121,20.0504329 93.6325601,1 60.5,1 Z M60,6 C90.4153558,6 115,23.0710664 115,43.5 C115,63.9289336 90.4153558,81 60,81 C29.4006666,81 5,63.9992489 5,43.5 C5,23.0007511 29.4006666,6 60,6 Z"></path>
                <path fill="#FFFFFF" d="M287.5,3 C319.068627,3 345,21.1258741 345,43.5 C345,65.8741259 319.068627,84 287.5,84 C255.931373,84 230,65.8741259 230,43.5 C230,21.1258741 255.931373,3 287.5,3 Z"></path>
                <path fill="#000000" id="脚备份-2" d="M287.5,-8.52651283e-14 C254.36744,-8.52651283e-14 227,19.0504329 227,43 C227,66.9495671 254.36744,86 287.5,86 C320.63256,86 348,66.9495671 348,43 C348,19.0504329 320.63256,-8.52651283e-14 287.5,-8.52651283e-14 Z M287,5 C317.415356,5 342,22.0710664 342,42.5 C342,62.9289336 317.415356,80 287,80 C256.584644,80 232,62.9289336 232,42.5 C232,22.0710664 256.584644,5 287,5 Z"></path>
            </g>
            <g transform="translate(116.000000, 385.000000)" id="衣服">
                <path fill="url(#linearGradient-1)" d="M343.919029,4.97476102 C348.720171,11.7453702 363.688436,13.4380225 363.688436,13.4380225 C439.659445,35.7246111 460.4843,94.9664956 460.4843,94.9664956 C472.628364,121.766824 449.413305,146.533364 449.413305,146.533364 C416.934993,166.845191 374.985241,148.850206 374.985241,148.850206 L377.809442,157.313468 L406.051452,377.358267 C342.506928,436.03688 278.962404,397.105877 278.962404,397.105877 L228.126785,253.230432 L184.634088,404.722812 C121.654404,429.548379 54.7208384,390.617377 54.7208384,390.617377 L69.9715242,270.156955 L84.0925296,157.313468 C43.7064542,162.391425 30.4327091,143.208032 30.4327091,143.208032 C2.47311847,123.742531 2.84217094e-14,102.046842 2.84217094e-14,102.046842 C28.5244309,20.5174229 106.686138,13.4380225 106.686138,13.4380225 C129.562167,10.3348266 121.654404,3 121.654404,3 L343.919029,4.97476102 Z"></path>
                <path fill="#000000" id="衣服备份" d="M120.082172,4.54211415 C120.438334,4.89678054 120.672259,5.4305647 120.500858,5.77699252 C120.21754,6.34962251 119.321305,7.07904451 117.562333,7.84071869 C115.138586,8.89025475 111.510288,9.78426456 106.566316,10.4547334 L105.86772,10.5002599 L104.841255,10.6050571 L103.990121,10.7105262 L102.486174,10.9261504 C102.304877,10.9541039 102.119041,10.9834227 101.928858,11.0141401 C98.1719221,11.6209401 93.9978154,12.5867842 89.5104196,13.9909353 C76.7234999,17.9920905 63.946131,24.6984663 52.0290364,34.7421214 L50.8802598,35.72309 C34.4855437,49.9072941 21.1553706,69.4142069 11.9245005,94.9627155 L11.3211262,96.6671907 L11.2835599,96.7542595 C10.7377361,98.1181895 10.1505739,100.052844 9.69327217,102.467195 C8.99147907,106.172353 8.78258227,110.135866 9.25170742,114.248009 L9.36810044,115.171688 C10.8523348,125.925656 16.7680332,135.891182 28.2082118,144.170938 L28.8270883,144.608962 L29.104779,144.969933 C30.7693219,147.064307 33.7709005,149.78659 38.3238799,152.460243 L39.1645498,152.942585 C49.3466821,158.649624 62.9195923,161.425563 80.2542303,159.894821 L81.316052,159.793105 L67.6153236,269.243805 L52.3729242,389.603832 C52.2405531,390.649086 52.7466675,391.67213 53.6584144,392.202281 L54.4955706,392.673221 L55.4811804,393.208022 C55.9670781,393.468303 56.4797539,393.738253 57.0186549,394.017065 L58.7134804,394.879273 L60.5623386,395.789789 C66.0467676,398.448425 72.2548039,401.104446 79.0675343,403.582659 C110.990285,415.194944 144.021341,418.960435 174.992685,410.126028 C178.649748,409.082871 182.251075,407.865619 185.793294,406.469739 L186.069337,406.342089 C186.691929,406.009229 187.158557,405.437259 187.355584,404.751182 L228.554918,261.277163 L276.628719,397.290422 C276.829407,397.858247 277.219441,398.339934 277.733455,398.654757 L278.774676,399.254398 L279.818189,399.819991 L280.993307,400.42772 C281.200007,400.532255 281.412101,400.638347 281.629543,400.745897 C284.71524,402.272133 288.267095,403.794563 292.240257,405.213604 C307.174857,410.547595 323.745963,413.013268 341.227041,411.012814 C364.336431,408.368282 386.833357,398.07624 407.916905,378.612808 C408.541521,378.036189 408.848205,377.193441 408.740036,376.350896 L380.512495,156.482633 L380.398913,155.986218 L379.093571,152.078941 L380.132243,152.265686 C394.910306,154.769778 413.064801,151.731572 432.93213,139.310215 C434.87951,138.261721 437.882797,136.069776 440.878965,132.753864 L441.396596,132.168846 C449.21702,123.140847 451.652518,111.460086 445.628153,97.455169 L445.420606,96.9875202 L445.334302,96.044335 L445.218932,95.0544108 L445.061051,93.8945244 C445.030967,93.6873743 444.99894,93.4733883 444.964885,93.2526893 C444.460611,89.984654 443.667016,86.3541233 442.521116,82.4510255 C439.254553,71.324653 433.821201,60.2040136 425.71485,49.8255697 C411.926612,32.1726897 391.858119,18.5513186 364.531646,10.5372457 L364.102833,10.4494117 L364.016383,10.4390922 C361.909444,10.1806596 358.964407,9.62001889 355.900078,8.68092181 C351.529621,7.34154762 348.191096,5.56311341 346.478896,3.47706607 L346.177062,3.08235944 C345.688895,2.39414106 344.899387,1.98198505 344.054865,1.97448387 L121.904118,0.000102777776 C119.503086,-0.0200191806 118.332083,2.9193406 120.082172,4.54211415 Z M15.9001166,98.3269197 L15.9248559,98.2659062 C25.1313039,71.9783729 38.5514932,52.3933206 55.1155726,38.4333474 C66.4586761,28.8735393 78.6029581,22.4995084 90.7377,18.7024621 C94.9728992,17.3772385 98.8983532,16.4689386 102.410266,15.9017187 L103.804023,15.692055 L105.056378,15.5331416 L106.184777,15.4193368 L106.683283,15.3833608 C117.365176,13.9447722 123.008778,11.5009908 124.832049,7.81591255 L125.039843,7.34967595 C125.349352,6.57089428 125.476485,5.78488474 125.44624,5 L342.129138,6.92767141 C344.680956,9.79188532 348.692983,11.8679758 353.716939,13.4076072 C355.669897,14.0061069 357.664534,14.4840539 359.619829,14.8562758 L360.823377,15.0730154 L361.867395,15.238838 L362.593765,15.3359905 L362.399777,15.2801076 C388.640997,22.9758336 407.75601,35.9499125 420.852672,52.7172189 C428.51865,62.5317658 433.656004,73.0464747 436.741338,83.555457 C437.818604,87.2247434 438.562028,90.6257193 439.031474,93.6680217 C439.153639,94.4597201 439.24999,95.1820769 439.323711,95.830312 L439.434248,96.9343557 L439.465199,97.3631604 C439.481581,97.6918239 439.559755,98.0144732 439.69564,98.3142635 C445.446894,111.002711 443.306809,120.992816 436.241764,128.811752 C434.754956,130.457213 433.158698,131.862859 431.567016,133.024534 L430.82206,133.551517 L430.205755,133.959032 L429.7344,134.246972 C429.668826,134.284991 429.60997,134.318024 429.558172,134.346068 C409.960461,146.592684 392.530827,149.151719 378.721107,146.341997 L377.672037,146.114606 L376.790718,145.898379 L375.790674,145.612663 L375.343535,145.459725 L375.074002,145.373617 C373.10163,144.853169 371.257861,146.740186 371.926601,148.743595 L374.661907,156.937224 L402.653693,374.963417 L401.06061,376.392019 C381.586139,393.560412 361.043989,402.650934 340.003398,405.0587 C323.408128,406.957769 307.645544,404.61242 293.4385,399.538329 C289.668355,398.191809 286.307204,396.751135 283.402155,395.314264 L282.812226,395.019273 L281.728059,394.45874 L280.70374,393.901805 L230.276217,251.219883 L230.150929,250.920012 C229.130704,248.825202 225.949285,249.021764 225.27498,251.369779 L182.212469,401.310882 L183.413853,400.852822 C180.035759,402.184013 176.600479,403.34513 173.110784,404.340536 C143.40473,412.813945 111.471962,409.173693 80.5337457,397.91965 C74.5677148,395.749455 69.0812332,393.440389 64.1634221,391.11934 L61.6352109,389.900705 L59.9285708,389.04666 C59.656895,388.908445 59.3916483,388.772361 59.132901,388.638507 L57.5048337,387.780465 L72.5082295,269.315634 L86.6066446,156.686442 C86.8191926,154.988442 85.372759,153.545279 83.6725589,153.75899 C64.8645595,156.123112 50.772151,153.402564 40.7005566,147.488262 C38.1049392,145.964048 35.9995552,144.34279 34.3465583,142.736492 C33.9886226,142.388668 33.6841706,142.074759 33.4313481,141.800794 L32.993993,141.30791 C32.9323906,141.235235 32.8763874,141.167444 32.8259149,141.104762 L32.5888973,140.791752 C32.4105569,140.534089 32.1874389,140.310411 31.9301138,140.131315 C20.7630605,132.359127 15.3487318,123.164227 14.217339,113.247034 C13.8118565,109.692789 13.9929739,106.256383 14.6006539,103.048131 C14.9906619,100.98908 15.4799507,99.3769267 15.9001166,98.3269197 Z"></path>
            </g>
            <g transform="translate(118.000000, 0.000000)" id="帽子">
                <path fill="url(#linearGradient-2)" d="M229,3 C353.865,3 455,93.4055944 455,205 C455,316.594406 353.865,407 229,407 C104.135,407 3,316.594406 3,205 C3,93.4055944 104.135,3 229,3 Z"></path>
                <path fill="#000000" id="帽子备份" d="M228.5,0 C102.320115,0 0,91.4513344 0,204.5 C0,317.548666 102.320115,409 228.5,409 C354.679885,409 457,317.548666 457,204.5 C457,91.4513344 354.679885,0 228.5,0 Z M228,5 C351.265619,5 451,94.1286844 451,204 C451,313.871316 351.265619,403 228,403 C104.734381,403 5,313.871316 5,204 C5,94.1286844 104.734381,5 228,5 Z"></path>
                <path fill="#64BEF8" id="蓝色" d="M249,3.85026738 C224.757627,78.3903743 231.032124,109 231.032124,109 C216.771905,109 207.074956,108.716578 207.074956,108.716578 C205.648934,65.3529412 225.042832,3 225.042832,3 L249,3.85026738 Z"></path>
                <path fill="#000000" id="蓝色备份" d="M249.45354,1.8498209 L225.655955,1.00169317 C224.464568,0.959233047 223.392607,1.7191363 223.040558,2.85572299 L222.393821,5.00657199 L221.429475,8.32553413 L220.530502,11.5143478 L220.216971,12.6466321 C218.106289,20.303339 215.996033,28.6322737 214.026172,37.350497 C210.97849,50.8389474 208.551942,64.0066745 206.976693,76.394615 C205.437299,88.5005931 204.75965,99.5072193 205.076089,109.169927 C205.118384,110.461411 206.088932,111.515399 207.34342,111.691433 L207.691871,111.717736 L214.255691,111.858246 L217.869014,111.912345 L221.652595,111.954583 L225.595085,111.983694 L229.685133,111.998418 L231.508905,112 C233.178928,112.001405 234.430305,110.473974 234.09696,108.840996 L234.033952,108.488302 L233.913557,107.632309 L233.822248,106.841376 L233.774876,106.379238 C233.573706,104.335123 233.445402,101.845889 233.427155,98.8978527 L233.426468,97.574755 C233.432008,96.457841 233.451461,95.3172026 233.485177,94.1527154 L233.57173,91.7919055 C233.58936,91.3931252 233.6086,90.9916858 233.629463,90.5875826 L233.77423,88.1309625 C233.801639,87.7161861 233.830697,87.2987368 233.861418,86.87861 L234.065793,84.3256817 L234.310683,81.7082714 L234.596706,79.0261577 C234.852371,76.7640418 235.15153,74.4342961 235.495797,72.0363443 L235.930674,69.1260264 C236.006797,68.6355047 236.084749,68.1422454 236.164545,67.6462441 L236.665541,64.6372946 L237.211391,61.562314 C237.306139,61.0443024 237.402781,60.5235302 237.501331,60 L238.115626,56.8255509 C238.221858,56.2909347 238.330024,55.7535442 238.440136,55.2133747 L239.124271,51.9389733 L239.85574,48.5976558 C239.98163,48.0351809 240.109519,47.4699087 240.239419,46.9018344 L241.043053,43.4597277 L241.895571,39.9501518 C242.48035,37.5878955 243.098132,35.1805121 243.749744,32.7277066 L244.752637,29.0143948 L245.806896,25.2327285 C246.166945,23.9607561 246.535659,22.6773544 246.91314,21.3824865 L248.071989,17.4634474 L249.284063,13.47539 L250.549982,9.41809299 L251.870367,5.29133506 C252.409066,3.62803788 251.204115,1.91221002 249.45354,1.8498209 Z M227.461388,6 L246,6.64791984 L245.065935,9.56128614 L243.794018,13.6198561 L242.576879,17.6098408 C242.180227,18.9284297 241.792601,20.2356248 241.413898,21.5314634 L240.304449,25.384947 C240.123968,26.0215284 239.945691,26.65528 239.769605,27.2862064 L238.739289,31.0378999 C238.571918,31.6575442 238.406713,32.2743726 238.243661,32.8883898 L237.291074,36.5387953 L236.389529,40.1219543 L235.538402,43.6380901 C235.400714,44.2185399 235.265101,44.7962063 235.13155,45.371094 L234.354882,48.7871133 C234.104171,49.9146964 233.861603,51.0312019 233.627075,52.1366671 L232.947505,55.4199787 L232.31555,58.6372712 C231.403016,63.4138071 230.64908,67.9682815 230.044277,72.3040836 L229.663065,75.1622595 C229.363627,77.5171382 229.10957,79.8047578 228.89927,82.0256995 L228.667809,84.6588613 L228.477733,87.2282354 L228.328419,89.734045 C228.306895,90.1463952 228.287044,90.5561063 228.268852,90.9631828 L228.179511,93.3740639 C228.144694,94.5637342 228.124577,95.729777 228.118812,96.8723178 L228.119526,98.2194724 L228.132361,99.3639644 C228.16889,101.609027 228.269694,103.591213 228.419011,105.322322 L228.480758,106 L223.551652,105.978052 L219.654374,105.942547 L214.123733,105.86648 L210.014385,105.787524 L210.003525,104.704504 C209.944631,96.2536393 210.624864,86.7737764 211.961519,76.4461463 C213.535146,64.2875629 215.965372,51.3307032 219.020326,38.0467145 C220.778355,30.402205 222.648251,23.0592065 224.530274,16.2177216 L225.550738,12.5607536 L226.451498,9.42147312 L227.461388,6 Z"></path>
            </g>
            <g transform="translate(198.000000, 109.000000)" id="脸">
                <path fill="#F8E3DE" id="椭圆-5" d="M148.641294,0 C230.591817,0 297,57.198895 297,127.359116 C297,197.801105 230.591817,255 148.641294,255 C66.6907707,255 0,197.801105 0,127.359116 C0,57.198895 66.6907707,0 148.641294,0 Z"></path>
                <path fill="#000000" id="椭圆-5备份" d="M148.14117,-3 C64.9136279,-3 -3,55.2029834 -3,126.859251 C-3,198.752402 64.8620792,257 148.14117,257 C231.367719,257 299,198.796879 299,126.859251 C299,55.1585789 231.3163,-3 148.14117,-3 Z M147.640938,2 C227.937899,2 293,58.1077813 293,126.858975 C293,195.849635 227.987775,252 147.640938,252 C67.2391347,252 2,195.801546 2,126.858975 C2,58.1558013 67.2891469,2 147.640938,2 Z"></path>
            </g>
            <g transform="translate(246.000000, 161.000000)" id="左眼">
                <path fill="#000000" id="形状-11" d="M5.00509037,-3.55271368e-14 C33.9581479,0.824828263 50.9893582,17.3213935 50.9893582,17.3213935 C54.1117467,23.0951914 49.0023836,20.3457638 49.0023836,20.3457638 C30.8357593,10.9977102 0.463434294,2.19954203 0.463434294,2.19954203 C-1.80739375,0.274942754 5.00509037,-3.55271368e-14 5.00509037,-3.55271368e-14 Z"></path>
                <path fill="#000000" id="椭圆-1" d="M29.5375068,38.0581004 C39.0696165,37.2154843 47.7606577,45.641645 48.8820824,56.5956538 C50.0035071,67.8305346 42.9946029,77.3801833 33.4624932,77.9419273 C23.6500273,78.7845434 14.9589861,70.3583828 14.1179176,59.1235019 C12.9964929,48.1694931 20.0053971,38.6198444 29.5375068,38.0581004 L29.5375068,38.0581004 Z"></path>
                <path fill="#FFFFFF" id="椭圆-2" d="M34.9236183,48.0196174 C38.0937178,47.7347038 40.6874356,50.5838396 40.9756265,54.5726296 C41.2638173,58.5614197 38.9582904,61.9803826 36.0763817,61.9803826 C33.1944731,62.2652962 30.3125644,59.4161604 30.0243735,55.4273704 C29.7361827,51.4385803 32.0417096,48.0196174 34.9236183,48.0196174 Z"></path>
                <path fill="#FFFFFF" id="椭圆-3-拷贝" d="M36.6315789,65 C37.9473684,65 39,65.5 39,66.5 C39,67.25 37.9473684,68 36.6315789,68 C35.3157895,68 34,67.25 34,66.5 C34,65.5 35.3157895,65 36.6315789,65 Z"></path>
            </g>
            <g transform="translate(386.000000, 161.000000)" id="右眼">
                <path fill="#000000" id="形状-11" d="M51.6251028,2.19954203 C51.6251028,2.19954203 21.3672541,10.9977102 2.98631805,20.3457638 C2.98631805,20.3457638 -2.10378733,23.0951914 1.00683262,17.3213935 C1.00683262,17.3213935 17.9738506,0.824828263 47.1005647,-2.30926389e-14 C47.1005647,-2.30926389e-14 53.6045882,0.274942754 51.6251028,2.19954203 L51.6251028,2.19954203 Z"></path>
                <path fill="#000000" id="椭圆-1" d="M38.8796171,59.1235019 C37.7337869,70.3583828 28.853602,78.7845434 19.1140445,77.9419273 C9.08802942,77.3801833 2.21304763,67.8305346 3.07242035,56.5956538 C4.21825065,45.641645 13.0984355,37.2154843 22.837993,38.0581004 C32.8640081,38.6198444 40.0254474,48.1694931 38.8796171,59.1235019 L38.8796171,59.1235019 Z"></path>
                <path fill="#FFFFFF" id="椭圆-2" d="M26.9756265,55.4273704 C26.6874356,59.4161604 24.0937178,62.2652962 20.9236183,61.9803826 C18.0417096,61.9803826 15.7361827,58.5614197 16.0243735,54.5726296 C16.3125644,50.5838396 18.9062822,47.7347038 22.0763817,48.0196174 C24.9582904,48.0196174 27.2638173,51.4385803 26.9756265,55.4273704 Z"></path>
                <path fill="#FFFFFF" id="椭圆-3-拷贝" d="M14.6315789,65 C15.9473684,65 17,65.5 17,66.5 C17,67.25 15.9473684,68 14.6315789,68 C13.3157895,68 12,67.25 12,66.5 C12,65.5 13.3157895,65 14.6315789,65 Z"></path>
            </g>
            <g transform="translate(200.000000, 233.000000)" id="口罩">
                <path fill="#64BEF8" id="帽子" d="M0,31.8932153 C0,31.8932153 70.4761905,31.6118456 116.708571,10.509119 C116.708571,10.509119 148.845714,-12.5631954 180.700952,9.66500996 C180.700952,9.66500996 217.912381,27.3913003 296,23.4521247 C296,23.4521247 284.72381,128.403018 149.409524,136 C149.409524,136 25.9352381,133.749042 0,31.8932153 Z"></path>
                <path fill="#000000" id="帽子备份-2" d="M180.700952,9.66500996 L181.607862,10.0670422 L182.89904,10.5992249 L184.756087,11.3145791 L186.650995,11.9988927 L188.311842,12.5675521 L190.846987,13.3875309 L192.989627,14.0405675 L195.339739,14.7191299 L197.897917,15.4168367 L199.719255,15.8894589 L201.633506,16.3658628 L204.679481,17.0834231 L206.826785,17.5610087 C207.192458,17.6404225 207.562029,17.7197181 207.9355,17.7988562 L210.223164,18.2714785 L212.604622,18.7384283 L215.080049,19.197815 C215.50046,19.2736441 215.924795,19.3490793 216.353055,19.4240812 L218.969765,19.8685778 L221.680884,20.3007842 C222.600344,20.4425945 223.535569,20.5820413 224.486587,20.7188095 L227.387051,21.120763 L230.382452,21.5047538 L233.472965,21.8688912 C235.56505,22.1046115 237.72066,22.3258356 239.940031,22.5300425 L243.316937,22.8232747 C243.887734,22.8699145 244.462524,22.915412 245.04131,22.9597277 L248.562005,23.2111259 L252.178781,23.4322712 C265.00584,24.1511314 279.6016,24.2793516 296,23.4521247 L295.853861,24.5418965 L295.643785,25.8549512 L295.318016,27.6364206 L295.027541,29.0681128 C294.920192,29.5765344 294.802018,30.1156072 294.672116,30.6837128 L294.246327,32.4735099 C287.921737,58.0801797 260.367238,129.770475 149.409524,136 L147.670259,135.933519 L145.926309,135.835117 L143.634944,135.67199 L141.82093,135.519491 L139.790142,135.326542 L137.553189,135.088471 L135.12068,134.800604 L132.503224,134.458268 C132.052158,134.396413 131.593828,134.332095 131.128456,134.265214 L128.253469,133.832413 C91.7965349,128.096213 19.1920762,107.266527 0,31.8932153 L3.21610859,31.8375269 L6.65011833,31.7337895 L10.3383409,31.5849478 L14.7088119,31.3643874 L17.6316017,31.1917774 L21.8502002,30.9083459 L25.2371537,30.6518718 L30.0238054,30.2455988 L33.7986751,29.8887266 L36.3955132,29.6242829 L40.4007838,29.1855746 L43.1382552,28.8637617 L47.3350249,28.3347815 L50.1871951,27.9499754 L53.0779831,27.5383973 L56.0032395,27.0991475 L58.9588147,26.631326 L61.9405591,26.1340331 L64.9443234,25.6063689 C65.4465552,25.515844 65.9495316,25.4240161 66.4531662,25.3308664 L69.4821797,24.7559583 C69.988101,24.6574468 70.4945076,24.5575762 71.001313,24.4563276 L74.0462394,23.8321508 C88.271774,20.8407609 102.674417,16.7396668 115.356452,11.1173499 L116.71818,10.5022657 L117.640267,9.88532242 L118.509278,9.34008199 L119.643234,8.66524043 L120.660083,8.08985264 L122.227738,7.2513856 L123.09886,6.80898635 L124.026104,6.35551914 L125.007914,5.89426587 L126.042733,5.42850844 L127.129005,4.96152873 L128.265174,4.49660866 L129.449684,4.0370301 C129.651045,3.96106113 129.854354,3.88545146 130.059581,3.81026948 L131.313685,3.36485677 C131.52645,3.291659 131.741067,3.21902567 131.957503,3.14702514 L133.2777,2.72316252 C133.724871,2.58477084 134.179062,2.44945734 134.640013,2.31776901 L136.042887,1.93412651 L137.484765,1.5755169 C137.728242,1.51801704 137.973279,1.46169695 138.219844,1.40662503 L139.717311,1.09171832 C151.334482,-1.19934899 166.047543,-0.559964515 180.700952,9.66500996 Z M128.73956,9.93289781 C126.288198,10.9958894 124.08395,12.1324035 122.169881,13.2616003 L121.074775,13.9258846 L120.304746,14.4226941 L119.978495,14.6480165 C119.701467,14.8473804 119.405691,15.0192758 119.095354,15.1612683 C98.7947615,24.4496619 72.8708243,30.5035587 43.91701,34.0116105 C33.6301528,35.2579689 23.6097364,36.0961994 14.1898718,36.6013562 L11.3207515,36.7455538 L8.59317356,36.8639074 L7,36.9232872 L7.39206137,38.1721974 C18.1990114,72.0581462 41.2961986,95.9978781 73.3474677,111.68914 L74.7672929,112.376056 C91.1637238,120.215063 108.786801,125.399153 126.418624,128.423834 C132.591627,129.482792 138.318032,130.195076 143.445475,130.625587 L145.485609,130.783787 L147.320574,130.90108 L149.541919,131 L151.193235,130.902796 C205.3793,127.468453 242.717374,108.078126 266.498851,77.8550241 L267.304336,76.8205021 C276.46798,64.9262276 282.909461,52.1740829 287.092609,39.4308931 C288.227649,35.9732034 289.128,32.714363 289.821448,29.7067553 L290,28.8993058 L289.003362,28.9379036 C255.639287,30.088747 227.482891,27.4473298 204.430344,22.2493993 L202.710972,21.8547804 C195.77622,20.2349724 189.83998,18.4923063 184.892506,16.7398765 L183.56088,16.2596375 L181.820813,15.6022989 L180.832031,15.2096931 L179.6052,14.6953972 L178.957888,14.4058818 C178.861359,14.3613576 178.770505,14.3187318 178.685322,14.2780561 C178.424573,14.1535465 178.174531,14.0077364 177.937737,13.8421082 L177.178696,13.3205813 C161.467645,2.71907528 144.723852,3.00158153 128.73956,9.93289781 Z"></path>
            </g>
            <g transform="translate(192.000000, 145.000000)" id="护目镜">
                <path fill="#F8E3DE" fill-opacity="0.1" d="M15.2421599,14.2336775 C15.2421599,14.2336775 164.558874,-19.4271958 298.068905,16.7794579 C298.068905,16.7794579 318.391784,26.3968502 311.617491,42.2372612 C311.617491,42.2372612 304.560936,95.6986482 276.899238,112.953382 C276.899238,112.953382 222.987154,160.19175 180.647821,97.3958351 C180.647821,97.3958351 166.816972,75.61527 148.75219,92.8700034 C148.75219,92.8700034 103.307973,163.303259 35.5650398,107.578956 C35.5650398,107.578956 4.2339333,71.0894383 0,37.7114295 C0,37.7114295 0,17.3451868 15.2421599,14.2336775 L15.2421599,14.2336775 Z"></path>
                <path fill="#000000" id="护目镜备份" d="M105.927527,-1.03416132 C82.2365141,0.667739694 59.9900289,3.3399573 39.8306302,6.57867125 L36.0559543,7.19605997 L32.4356052,7.80968775 L28.9724823,8.41773615 L25.6694854,9.01838672 L22.5295138,9.60982103 L18.3365946,10.434829 L15.5448857,11.0132147 L14.2778809,11.2881154 C6.96384965,12.7772283 2.11459561,17.7920632 -0.623593785,24.9551653 C-1.5820798,27.4625643 -2.22362609,30.0932303 -2.61049803,32.7283509 C-2.86485233,34.4608473 -2.97597504,35.9429412 -3,37.0533995 L-3,37.2187159 L-2.97924942,37.5837738 C-2.64077281,40.2460467 -2.13045966,42.970134 -1.4561872,45.7518308 C1.41859443,57.6116815 7.15622186,70.1900217 14.9112641,82.9683323 C18.8983913,89.5380901 23.1669941,95.7422425 27.4366678,101.394876 L28.1755817,102.367461 L29.5967074,104.205479 L30.9357362,105.896272 L32.652098,107.998756 L33.1670909,108.608217 L33.4916125,108.925239 C62.8744292,133.039923 90.6906196,136.274365 115.814603,123.99126 C124.802263,119.597197 132.863233,113.466006 139.939057,106.288122 L140.838723,105.364749 C144.671739,101.384231 147.6516,97.6848907 149.732692,94.7060822 L150.253293,93.9473766 L150.051403,94.1347241 C156.751123,87.7500357 162.869789,86.8747305 168.761429,89.8476982 C170.971046,90.9626881 173.038887,92.579952 174.90709,94.5122928 C175.981788,95.6238869 176.853484,96.6908772 177.496104,97.5861692 L177.888768,98.1548838 C185.263479,109.069548 193.258337,117.174322 201.824891,122.723401 C222.260838,135.961009 244.084998,134.085573 264.699829,123.064233 C268.28486,121.147562 271.529043,119.094052 274.380179,117.037066 C275.132269,116.494462 275.817532,115.979688 276.433155,115.499741 L277.709944,114.472393 L277.83847,114.361751 L277.65401,114.482014 C290.163791,106.696512 299.450851,91.7661779 306.138655,72.3441841 C308.485068,65.5299865 310.348748,58.5989647 311.783393,51.8752157 C312.19582,49.9422951 312.551887,48.1216147 312.854875,46.4340461 L313.248017,44.1403267 L313.506738,42.4478965 L313.365961,42.7984063 C317.209516,33.8314913 313.998726,25.8821877 306.601774,19.4255252 C304.847117,17.8939176 302.977754,16.5618303 301.107581,15.4290164 L300.198442,14.8935627 L299.421135,14.4624703 L298.791667,14.1364868 C298.699964,14.0909568 298.615089,14.0498374 298.537374,14.0131443 L298.101893,13.8528565 C239.42353,-2.02383396 173.65696,-5.89966829 105.927527,-1.03416132 Z M293.083643,17.8213202 L295.797831,18.541976 L296.584755,18.9595568 L297.290532,19.36322 C297.418674,19.4385502 297.551842,19.5178851 297.68969,19.6011917 C299.313294,20.5823915 300.937706,21.7372682 302.44392,23.048993 C308.109053,27.982616 310.455751,33.4869811 308.07978,39.7059837 L307.826388,40.3302714 C307.764251,40.4749041 307.715383,40.6246852 307.680296,40.7777717 L307.62951,41.072643 L307.413776,42.5271804 L307.227028,43.6689691 L306.880421,45.6252088 L306.451517,47.85621 L306.11846,49.4864635 C306.059751,49.7672951 305.999431,50.052607 305.937481,50.3422777 C304.546727,56.8453403 302.73996,63.5492588 300.471415,70.122177 C294.149813,88.4384853 285.455844,102.38321 274.216989,109.361669 L273.876587,109.613233 L273.080443,110.268806 C272.39074,110.820322 271.578393,111.438275 270.650575,112.106122 C267.985715,114.024297 264.942872,115.945935 261.580557,117.739403 C242.516594,127.908172 222.672414,129.60954 204.124728,117.622691 C196.534119,112.717094 189.354561,105.576066 182.666889,95.9914255 L181.63556,94.484905 C180.806199,93.2637387 179.646423,91.8004635 178.166298,90.2730422 C175.921153,87.9561561 173.404613,85.9924884 170.621659,84.5914157 C162.767018,80.6370134 154.260218,81.8511556 145.956806,89.7459381 L145.746361,89.9710388 L145.524917,90.2783307 L145.091327,90.9133893 L144.443681,91.8211094 C144.326197,91.982326 144.203965,92.1483831 144.077021,92.3190943 L143.259092,93.3977185 L142.329776,94.5790881 C140.401723,96.9876037 138.202172,99.478733 135.742673,101.967972 C129.06602,108.72536 121.479977,114.482057 113.085771,118.576548 L112.179015,119.011016 C89.480674,129.691184 64.5731376,126.73332 37.5976477,105.099035 L36.6972889,104.369989 L35.3448842,102.737972 L34.0895457,101.175839 C33.8729581,100.903002 33.652797,100.623997 33.4292252,100.338937 L32.0481702,98.5567868 C31.8116077,98.2479451 31.5719604,97.9332689 31.3293913,97.6128692 C27.1671591,92.115144 23.0038577,86.0779501 19.1212029,79.6950417 C11.6341327,67.3866378 6.11707768,55.31965 3.39152661,44.101293 L3.03299838,42.5566461 C2.69314719,41.0197637 2.40947758,39.5063036 2.18334402,38.0174209 L2,36.6997132 L2.03402628,35.9091933 C2.04338017,35.7541218 2.05458982,35.5921546 2.06779431,35.4237206 L2.17207175,34.3389474 C2.2155519,33.9537773 2.26812389,33.5461719 2.33090022,33.1195631 C2.66487682,30.8499603 3.21627609,28.5941401 4.02477353,26.4839729 C6.08310898,21.1117457 9.43503305,17.5179817 14.4409618,16.2666368 L16.3623303,15.8444654 L19.1000969,15.2785978 L21.7428286,14.7548953 L24.7648353,14.1768738 L27.9508206,13.5886209 L31.2978787,12.9919454 L34.8031037,12.3886564 L38.4635894,11.7805629 L40.3511471,11.4752798 C60.3356258,8.2720477 82.3981998,5.62801294 105.893572,3.94404606 C171.845343,-0.782867816 235.881586,2.8364752 293.083643,17.8213202 Z"></path>
            </g>
            <g transform="translate(197.000000, 381.000000)" id="衣服线条">
                <path fill="#64BEF8" id="形状-16" d="M28.3880765,0.852420869 C28.3880765,0.852420869 135.677165,42.6210435 268.941507,1.0658141e-14 C268.941507,1.0658141e-14 269.506187,9.09248927 276,13.6387339 C276,13.6387339 159.67604,62.795004 25,15.3435756 C25,15.3435756 28.6704162,8.2400684 28.3880765,0.852420869 Z"></path>
                <path fill="#64BEF8" id="形状-14" d="M141,234.358083 C156.213498,138.252085 141,32 141,32 L157.043326,32 C168.660906,115.423388 156.213498,236.049098 156.213498,236.049098 L141.308753,285 L142.956704,261.226315 L141,234.358083 Z"></path>
                <path fill="#64BEF8" id="形状-13" d="M4.84637681,168.695078 C4.84637681,168.695078 148.730435,220.763223 294.307246,158 L296,173.198269 C296,173.198269 193.870531,237.650189 4,185.863494 L4.84637681,168.695078 Z"></path>
                <path fill="#000000" id="路径-2" d="M30.4539792,-2.14165076 L27.9989531,-3 L26.6089231,0.833456419 L24.7434341,6.03858759 L23.9003329,8.42613799 L22.3933351,12.7714905 L20.9500036,17.0480839 L23.210027,17.9897119 C34.2564499,22.5921514 46.974025,26.3601482 61.0929559,29.3941375 C76.6784719,32.7432785 93.2341121,35.0617601 110.620074,36.6360646 C115.625481,37.0893057 120.433981,37.4583667 125.421356,37.7866875 L133.897076,38.2994184 L138.434874,38.5643102 L138.830021,40.3007126 C141.968871,54.3744066 144.074946,70.973385 145.268632,89.6274033 C146.820616,113.88065 146.766708,139.18375 145.687981,165.465563 L145.373699,172.50566 L144.636022,186.887623 L141.014687,186.906449 C89.366886,186.972905 43.0147055,179.732287 1.94976154,165.196383 L-1.12919142,164.106515 L-1.53786978,167.343603 C-1.63588244,168.119949 -1.72973859,168.921898 -1.81944633,169.749477 L-2.07613244,172.309123 C-2.27968003,174.506275 -2.45735076,176.863765 -2.60927132,179.381983 L-2.77922404,182.48102 L-2.92450525,185.734508 L-3,187.625692 L-1.22779975,188.295761 L0.865090305,189.067595 L3.06676981,189.840132 C3.43958663,189.967738 3.81533871,190.094769 4.19402628,190.221225 L6.50137933,190.973065 C7.28224016,191.221379 8.07484471,191.467395 8.87919478,191.711113 L11.3274833,192.435377 L13.8462556,193.145861 L16.4355224,193.842573 C16.872942,193.957544 17.3132993,194.071941 17.7565945,194.185765 L20.4516231,194.861828 C20.906671,194.973359 21.3646572,195.084316 21.8255821,195.1947 L24.6263965,195.850128 L27.497748,196.491807 L30.4396475,197.119743 L33.4521057,197.733941 C33.9600625,197.835163 34.4709597,197.935813 34.9847976,198.035891 L38.1031137,198.629495 C38.6287148,198.727285 39.1572571,198.824504 39.6887406,198.921151 L42.9129387,199.494173 L46.2077382,200.053483 L49.5731499,200.599085 L53.0091843,201.130986 L56.5158521,201.649191 C57.1061835,201.734418 57.6994584,201.819074 58.295677,201.90316 L61.9083151,202.400833 L65.5916134,202.884826 L69.3455826,203.355145 L73.1702334,203.811795 L79.039761,204.471154 L85.0683822,205.099793 L89.1758663,205.501829 L93.3540853,205.890226 L97.6030502,206.26499 L101.922771,206.626128 L106.31326,206.973645 L110.774526,207.307547 L115.306581,207.627841 L119.909435,207.934531 L124.583098,208.227625 L129.327583,208.507128 L136.577121,208.900913 L140.975294,209.120229 L137.932063,234.363459 L137.913685,234.626277 L137.05551,278.439688 L137.080336,278.854756 C137.956897,285.117289 137.895491,290.351526 136.927056,294.544473 L131.971521,316 L142.016788,295.951182 L142.375861,295.160514 L142.745174,294.275928 L143.124577,293.298617 L143.513921,292.229771 L143.913056,291.070584 L144.321834,289.822246 L144.740105,288.48595 L145.167719,287.062888 L145.604526,285.554252 L146.276649,283.133453 L146.735788,281.416095 L147.440708,278.687802 L147.921243,276.769173 L148.907058,272.69784 L149.924866,268.322352 L150.7085,264.84687 L151.779422,259.962056 L152.879051,254.799309 L154.269926,248.077468 L155.364174,242.640799 L156.885825,234.878645 L158.935258,224.07608 L160.475538,215.644709 L161.493639,209.80835 L161.614231,209.083455 L165.20147,208.780735 C220.383588,203.949011 265.352328,192.81322 300.113249,175.338355 L302,174.389855 L301.479753,172.345094 C300.481603,168.422001 299.634782,163.958125 298.941421,158.955936 L298.268005,153.78809 L295.050837,155.198226 C267.40583,167.315468 238.191379,175.896865 209.491544,181.299043 L205.097395,182.101899 L202.312317,182.584096 L199.548451,183.04203 L196.812588,183.47553 L194.11152,183.884425 L190.140018,184.45126 L187.555655,184.797896 L183.791047,185.270543 L181.365839,185.553853 L179.016178,185.811535 L175.648198,186.14963 L173.517123,186.342492 L171.485368,186.509128 L169.559726,186.649367 L167.746988,186.763038 L166.053947,186.84997 L164.487395,186.909994 L163.054123,186.942937 L162.303247,186.948038 L162.38472,186.238257 C162.680459,183.523895 162.943497,180.570989 163.175578,177.418642 L163.397405,174.201265 L163.598981,170.859617 C163.630911,170.292802 163.662013,169.721172 163.692296,169.144907 L163.864223,165.633149 L164.016868,162.018846 L164.15062,158.310689 L164.265864,154.517368 L164.36299,150.647573 L164.442385,146.709994 L164.504436,142.713321 L164.549531,138.666245 L164.578057,134.577455 L164.590628,128.385068 L164.5681,122.147707 L164.520624,116.676181 L164.431364,110.160434 L164.308019,103.688964 L164.152076,97.295132 L163.913573,89.462841 L163.689726,83.3656653 L163.371051,76.0097486 L163.011903,69.0097031 L162.778197,65.007599 L162.446636,59.9315608 L162.093637,55.1833604 L161.909563,52.9426244 L161.720687,50.7963579 L161.428776,47.7632102 L161.22871,45.8713611 L160.920885,43.2393865 L160.71079,41.6280175 L160.497009,40.1361379 L160.312463,38.9661992 L160.987647,39.0017403 L162.554419,39.0537468 L164.182697,39.0755526 C165.012217,39.0789058 165.864813,39.0709348 166.740497,39.051641 L168.522656,38.9979571 L170.366414,38.914082 L172.271797,38.8000184 L174.23883,38.6557691 C174.571808,38.6292122 174.907355,38.6013977 175.245473,38.5723256 L177.305032,38.3828027 L179.426307,38.1631007 L181.609325,37.9132225 L183.854111,37.6331707 L186.160693,37.322948 C186.550274,37.2687301 186.942432,37.2132552 187.337165,37.1565234 L189.736489,36.8010494 L193.451472,36.2112815 L196.005497,35.7804023 L198.621449,35.3193656 L201.299353,34.8281743 L204.039236,34.3068311 L206.841125,33.7553386 L209.705045,33.1736995 L214.117291,32.244722 L217.136404,31.5877283 L220.217641,30.9005976 L223.361027,30.1833324 L228.192695,29.0509386 L233.164347,27.8507577 L238.276071,26.5827987 L243.527957,25.2470708 L248.920094,23.843583 L252.592811,22.8702847 L256.327928,21.8668777 L262.047659,20.3053193 L265.938889,19.2266523 L269.892609,18.1178861 L275.940417,16.3983067 L279.694876,15.3222984 L277.28443,12.2524559 C276.899093,11.7617068 276.494741,11.1822342 276.072104,10.5147287 L275.424526,9.44753201 C274.873602,8.50332471 274.294679,7.42210538 273.689183,6.20522267 L272.949925,4.67993131 C272.824619,4.41489178 272.698274,4.1444473 272.5709,3.86860864 L271.794404,2.14893303 L270.993767,0.300315265 L269.650357,-2.91299778 L267.340266,-2.15932847 C185.605268,24.5067901 106.673095,24.5067901 30.4539792,-2.14165076 Z M265.842571,4 L266.254084,4.93962169 C267.420239,7.57007235 268.525405,9.82496913 269.576126,11.7105131 L270.182709,12.7658762 L265.854803,13.9907554 L260.139246,15.584356 L252.729378,17.6076318 L247.330242,19.0489563 L243.806231,19.9735908 L238.633394,21.3061761 L233.59645,22.5735295 L230.314025,23.3821962 L223.930581,24.912576 L219.301826,25.9842867 L216.29167,26.6625396 L213.342087,27.3118187 L210.453102,27.9321268 L207.624742,28.5234664 L203.495926,29.3561655 L200.819236,29.8750953 L198.203257,30.3650657 L195.648017,30.8260793 L193.153539,31.2581388 L189.525807,31.8519446 L187.183346,32.2116301 L184.901736,32.5423705 L181.593472,32.9842148 L179.4641,33.242604 L177.395667,33.4720573 L175.388199,33.6725772 L173.44172,33.8441664 L171.556257,33.9868275 L169.731833,34.1005631 L167.968476,34.1853758 L166.266209,34.2412682 L164.625057,34.2682429 C164.356627,34.270329 164.090743,34.2712103 163.827408,34.2708869 L162.277978,34.2544899 C161.518556,34.2390634 160.782076,34.2127952 160.068552,34.1756868 L158.672117,34.0870167 C158.444481,34.0698296 158.219396,34.0514381 157.996864,34.0318423 L156.692301,33.8998162 L152.912386,33.4651991 L153.847651,37.1572068 C154.019179,37.834324 154.188428,38.6412118 154.354991,39.5688099 L154.60277,41.0496074 C154.643713,41.3111182 154.684476,41.5798904 154.725053,41.8557822 L154.966215,43.5954371 L155.202585,45.4991697 L155.433857,47.5601849 L155.659727,49.7716876 L155.879889,52.1268826 L156.198762,55.9142338 L156.403319,58.5989309 L156.697353,62.8486832 L156.975112,67.345298 L157.150733,70.4688617 L157.318357,73.6851544 L157.628395,80.3687457 L157.770198,83.8224541 L157.965524,89.1237963 L158.13908,94.5496886 L158.289836,100.077198 L158.416763,105.68339 L158.518829,111.345331 L158.595007,117.040088 L158.644264,122.744728 L158.665571,128.436316 L158.657899,134.09192 L158.620217,139.688605 L158.551495,145.203438 L158.487927,148.823195 L158.409801,152.389586 L158.316811,155.895814 L158.208653,159.335086 L158.08502,162.700607 L157.869889,167.595738 L157.706236,170.74715 L157.526041,173.801027 L157.328998,176.750574 L157.114803,179.588996 C157.040512,180.515861 156.963311,181.423072 156.88315,182.309498 L156.633734,184.905284 C156.5476,185.749006 156.458456,186.570809 156.366249,187.36956 L156.080392,189.695531 L155.719094,192.455399 L158.492145,192.658516 C158.776476,192.679343 159.081414,192.696456 159.406194,192.709877 L160.439291,192.739087 L161.586846,192.74628 L162.844268,192.731585 L164.206965,192.695136 L165.670346,192.637063 L167.22982,192.557497 L169.739164,192.39814 L171.518785,192.26542 L174.336829,192.026947 L177.319432,191.741596 L180.451101,191.409813 L183.716341,191.03204 L185.959722,190.754861 L188.250989,190.457572 L191.767636,189.974218 L194.158535,189.627227 L197.803109,189.069937 L201.503778,188.468878 L203.994404,188.044075 L206.498484,187.600148 L209.609912,187.02596 C236.593842,181.942679 264.030295,174.073967 290.250776,163.118308 L293.096431,161.911937 C293.601005,165.299558 294.176349,168.441374 294.825072,171.347139 L295,172.105061 L293.305385,172.931 C259.166074,189.365846 215.169335,199.845735 161.320424,204.337477 L156.40786,204.73184 L155.743701,208.923131 L155.152172,212.384483 L153.719168,220.376968 L151.941877,229.900589 L150.640631,236.674587 L149.19304,244.019391 L148.46911,247.609967 L147.653497,251.585309 L146.506894,257.048551 L145.758348,260.530934 L145.023427,263.880374 L143.948352,268.645672 L143.251014,271.643562 L142.570119,274.493155 L141.700976,278 L142.530669,235.434903 L146.231609,204.694856 L138.589302,204.329937 L131.356052,203.948757 L124.281606,203.537403 L119.653551,203.246415 L115.096103,202.94203 L110.609271,202.624256 L106.193067,202.293098 L101.847502,201.948563 L97.5725853,201.590656 L93.3683286,201.219383 L89.2347422,200.83475 L83.1668929,200.232765 L79.2100292,199.814759 L75.3238732,199.383415 L69.6272396,198.711401 L65.9178997,198.246735 C65.3055715,198.168181 64.696191,198.089072 64.0897584,198.009408 L60.4865402,197.524768 L56.954083,197.026819 L53.4923977,196.515567 L50.1014948,195.991019 L46.781385,195.453179 L43.5320791,194.902054 L40.3535877,194.33765 C39.8297409,194.242477 39.3088452,194.14675 38.7909007,194.05047 L35.718651,193.466159 L32.7172426,192.868584 L29.7866859,192.257751 C29.3041647,192.154841 28.8245961,192.051378 28.3479804,191.947364 L25.5237215,191.316655 L22.7703412,190.672702 L20.0878502,190.015513 L17.476259,189.345092 L14.9355784,188.661446 C14.5180414,188.546403 14.1034595,188.430809 13.6918328,188.314665 L11.2575381,187.611192 L8.8941806,186.894509 C8.50619972,186.773961 8.121175,186.652863 7.73910667,186.531216 L5.48217507,185.794728 C4.74169127,185.547033 4.0130348,185.297138 3.29620742,185.045046 L2,184.579678 L2.06123701,183.296285 C2.16389517,181.220923 2.28240556,179.249304 2.4167034,177.381628 L2.62998267,174.658097 C2.66749994,174.217177 2.70600191,173.782759 2.74548756,173.354847 L2.90058516,171.765991 L4.70150481,172.382617 C46.7036193,186.555389 93.9844651,193.31236 146.535672,192.665325 L149.084211,192.633946 L149.131408,189.986123 L150.091315,170.884507 C151.364897,142.742044 151.522769,115.692029 149.867887,89.7722139 C148.554503,69.2011426 146.144451,51.0520144 142.460556,35.8898926 L142.008451,34.029127 L138.673735,33.7981581 L128.905455,33.2250913 C122.58831,32.8394345 116.69865,32.4077851 110.508533,31.8459985 C93.3466534,30.2884654 77.0201418,27.9968932 61.6912829,24.6954447 L59.2700525,24.1634454 C48.0396326,21.6463062 37.7742067,18.6454368 28.6341313,15.1161616 L27.0562222,14.4953954 L28.0170244,11.7153505 L29.2478621,8.21240038 L30.7163263,4.08936725 L32.8975921,4.8307258 C107.127378,29.7660006 183.92167,29.7636831 263.20115,4.83942859 L265.842571,4 Z"></path>
            </g>
            <g transform="translate(91.000000, 395.000000)" id="左手">
                <path fill="#FFFFFF" id="形状-20" d="M116.929714,64.9562244 C116.929714,64.9562244 119.974001,64.9562244 121.357767,63.2982216 C121.357767,63.2982216 130.213874,53.626539 134.91868,43.4021888 C134.91868,43.4021888 137.40946,34.8358413 144.328294,31.5198358 C144.328294,31.5198358 160.103234,25.4404925 164.254534,37.5991792 L160.933494,54.7318741 L189.162333,51.1395349 C189.162333,51.1395349 201.892987,51.1395349 203,61.6402189 L203,108.064295 C203,108.064295 202.446493,118.841313 191.653113,122.433653 L141.007254,130.170999 L124.678807,131 C124.678807,131 107.243347,115.248974 116.929714,64.9562244 L116.929714,64.9562244 Z"></path>
                <path fill="#000000" id="形状-20备份" d="M152.738957,28.0057643 C150.595011,27.9566395 148.415889,28.2240454 146.283153,28.7107015 C145.119087,28.9763225 144.131753,29.2672272 143.37812,29.5285453 L142.960935,29.6790441 C139.973316,31.1006888 137.653273,33.2052577 135.747416,35.8464255 L135.305829,36.4770926 C133.73791,38.7854239 132.730455,41.033878 132.181722,42.7400417 L132.109404,42.9713014 L132.171153,42.8489953 C130.850032,45.7205861 129.095739,48.7429989 127.014511,51.8303207 C125.26359,54.4276618 123.383372,56.9226574 121.503599,59.2210115 L121.019975,59.8078746 L120.112665,60.8839189 L119.026912,62.1214104 C118.826464,62.3575649 118.553058,62.5262107 118.149472,62.668465 C117.782063,62.797968 117.35864,62.8875158 116.930365,62.9378346 L116.420119,62.9770984 C115.236578,62.9770974 114.217637,63.8176489 113.993698,64.9805966 C109.755659,86.9893421 110.221626,104.298996 114.105182,117.43743 C115.505809,122.17588 117.272377,126.068368 119.23802,129.178251 C120.377121,130.980444 121.406687,132.258189 122.203622,133.060976 L122.492456,133.340741 C122.981707,133.794052 123.633635,134.030656 124.300157,133.99681 L140.635075,133.167316 L140.883541,133.142089 L191.549474,125.400146 L191.957509,125.30181 C196.399302,123.823165 199.684052,121.157825 201.917827,117.67773 C204.056286,114.346131 204.877001,111.03934 204.996754,108.707221 L205,62.1290628 L204.986411,61.8704975 C204.41626,56.4612095 201.264254,52.8386226 196.570383,50.8322778 C194.954037,50.1413883 193.251588,49.6854633 191.540845,49.4147887 C191.171522,49.3563542 190.820453,49.3091841 190.490573,49.271807 L189.567432,49.187584 C189.425147,49.177953 189.288893,49.1704026 189.159036,49.1647487 L188.712185,49.1523628 L188.370964,49.1720178 L163.521544,52.3323784 L166.194115,38.5430815 C166.275995,38.1205906 166.245926,37.6840662 166.106886,37.276753 C163.968655,31.0128774 159.056842,28.150528 152.738957,28.0057643 Z M153.200502,33.0273106 C156.925129,33.240514 159.572514,34.7184945 161.022787,37.9160034 L161.203683,38.340306 L158.016696,54.7935566 L157.977734,55.0826932 C157.861397,56.6120195 159.183629,57.9111355 160.753945,57.7111298 L188.7711,54.1426246 L188.67829,54.1393411 C190.256217,54.1670502 192.467898,54.5172132 194.577564,55.4195598 L195.092415,55.6526594 C197.776223,56.9385412 199.46264,58.9133455 199.938572,61.8641756 L200,62.3276432 L200,108.592131 L199.973598,108.836286 L199.911923,109.2386 L199.809772,109.775394 L199.661941,110.422988 C199.272147,111.994564 198.635186,113.565768 197.702955,115.019085 L197.340058,115.557401 C195.842437,117.671956 193.788887,119.318412 191.051096,120.368904 L190.529724,120.553337 L140.278036,128.239751 L125.243284,129 L125.18516,128.932709 C124.649679,128.290448 124.070396,127.496262 123.467134,126.541202 C121.746615,123.817348 120.171171,120.343706 118.901488,116.045429 L118.634224,115.112445 C115.412466,103.508994 114.957061,88.3255582 118.323761,69.1048627 L118.571875,67.7135631 L118.711617,67.6883407 C119.093545,67.6033434 119.473122,67.4966567 119.846787,67.3648625 C120.854431,67.0094589 121.742499,66.4993886 122.456895,65.7838183 L123.470488,64.6527741 L123.91506,64.1377404 L124.870471,63.0039847 C125.036573,62.8038484 125.205941,62.598238 125.378329,62.3873257 C127.34625,59.9796139 129.313727,57.3671133 131.153982,54.63546 C133.371326,51.344061 135.253338,48.0994756 136.694891,44.9640558 L136.822513,44.6217216 L136.932819,44.2776894 L137.107048,43.7982997 L137.346717,43.198364 C137.3922,43.0891521 137.440472,42.9755346 137.491566,42.85782 C138.095121,41.4673052 138.858477,40.0765526 139.785384,38.7911854 L140.279379,38.1367236 C141.454385,36.6504547 142.785844,35.4531571 144.273336,34.6143948 L144.835144,34.3193786 L144.771178,34.3433067 C146.769948,33.6018291 149.681319,32.9370648 152.633744,33.0047591 L153.200502,33.0273106 Z"></path>
                <path fill="url(#linearGradient-3)" id="袖子" d="M42.8825313,65.2525311 C80.2787169,43.4531282 121.692674,61.2610911 121.692674,61.2610911 C105.621586,122.974894 139,142.318026 139,142.318026 C46.9003033,173.328444 20.6302556,137.712518 20.6302556,137.712518 C-11.5119204,115.606081 10.1222366,80.2971894 10.1222366,80.2971894 C45.3550064,0.161356324 129.419159,2.00355938 129.419159,2.00355938"></path>
                <path fill="#000000" id="袖子备份" d="M128.988604,0.00481352717 L128.878991,4.93861014 L128.371043,4.93497604 L127.42403,4.94395389 L126.323126,4.97325581 L125.072616,5.02554573 C124.851969,5.03632438 124.625266,5.04817186 124.392598,5.06114366 L122.925714,5.15291043 C122.66954,5.17060155 122.407579,5.18952799 122.139919,5.20974525 C117.523753,5.55842095 112.454027,6.21067828 107.049604,7.23982921 C91.9579696,10.1136917 76.9365155,15.3710901 62.9258885,23.5892798 C41.4179653,36.2051457 24.1469073,54.7288925 12.6021818,80.1731604 L11.9163818,81.7081292 L11.7618041,82.0034413 L11.5590268,82.3478443 L11.2817624,82.8460464 L10.9377915,83.4928942 C10.8753364,83.612803 10.810426,83.7386906 10.7432225,83.8704497 C9.94697367,85.4315737 9.14809579,87.2083819 8.40174745,89.1633871 C4.7963575,98.6074443 3.73513974,108.351529 6.69559589,117.342987 C9.04157645,124.468169 13.8500572,130.773455 21.5613958,136.07414 C21.7128922,136.178277 21.8520171,136.298656 21.9763379,136.432925 L22.4175035,136.976331 L22.8160591,137.421497 C22.8937107,137.504648 22.9770218,137.592156 23.0660626,137.68384 L23.6696243,138.282602 L24.4140636,138.972873 C26.5223322,140.867012 29.2209569,142.776751 32.5639637,144.571037 C45.817761,151.684724 63.9066784,154.779165 87.5120278,152.159384 L90.1090729,151.85084 C102.331045,150.304425 115.989152,147.26106 131.173287,142.497105 L133.273415,141.82753 L132.687252,141.306872 C130.536832,139.347443 128.405499,136.999772 126.382641,134.239066 L125.629329,133.184391 C114.560434,117.286814 110.703916,94.554933 118.054987,64.0533275 L118.263066,63.2006931 L117.557946,62.9506612 C115.344884,62.1710289 112.805886,61.3893112 109.984076,60.6586577 C91.4209366,55.852089 71.7087931,55.6578317 53.3185322,63.0792068 C50.5607795,64.1920957 47.8629499,65.4709715 45.2290438,66.9215881 L43.6564029,67.812613 L41.141,63.55626 C44.4791303,61.6114405 47.9174233,59.9317859 51.4470802,58.5073957 C70.9745225,50.6271119 91.7283254,50.8316345 111.238306,55.8833695 C114.202282,56.6508343 116.876693,57.4742433 119.21994,58.2997378 L120.383789,58.720418 L121.395744,59.1064958 L122.194611,59.4308061 C123.317971,59.9135818 123.919979,61.1366564 123.613397,62.3132953 C115.627299,92.9632881 119.134745,115.178299 129.71778,130.378065 C131.967752,133.609563 134.369551,136.235735 136.758986,138.30229 C137.41875,138.872902 138.036873,139.364763 138.602655,139.78069 L139.232244,140.227604 L139.766667,140.574393 C141.608041,141.640895 141.331139,144.363275 139.312182,145.04269 L135.981465,146.14479 C134.327198,146.682768 132.689547,147.201192 131.068419,147.700311 L127.848167,148.672886 C124.116844,149.777701 120.475143,150.778322 116.921886,151.677919 L113.89787,152.424335 C103.389428,154.950719 93.6739474,156.576039 84.7195993,157.385888 L82.1818977,157.595158 L79.6854533,157.760492 C59.0531968,158.956443 42.701381,155.621964 30.2003974,148.912334 C26.5017217,146.92715 23.4781541,144.787458 21.0792087,142.632165 C20.092323,141.745514 19.3361638,140.974633 18.794909,140.36031 L18.4094555,139.905349 L17.7902424,139.470091 C10.0467097,133.913428 4.96169183,127.269403 2.2814261,119.779296 L1.97132078,118.876438 C-1.39682956,108.646736 -0.217412561,97.8173478 3.75411517,87.4142193 C4.5657285,85.2882571 5.43609527,83.3524484 6.30909109,81.6408544 L6.73605181,80.8214234 L7.10124379,80.1514849 L7.42754642,79.5824151 L8.05922294,78.1709874 C19.802114,52.277425 37.3197035,33.2242479 59.0866913,20.119498 L60.3977976,19.340344 C74.9370718,10.8120666 90.4922761,5.36785963 106.113409,2.39316607 C111.709329,1.32754882 116.964982,0.651370607 121.762896,0.288966829 L123.380481,0.177263951 L124.856074,0.0952253177 C125.089938,0.0838737529 125.317709,0.0736453387 125.539299,0.0644836452 L126.793959,0.0218626949 L127.896034,0.0021344116 C128.066762,-1.42108547e-14 128.230956,-1.42108547e-14 128.388527,-1.42108547e-14 L128.988604,0.00481352717 Z"></path>
            </g>
            <g transform="translate(499.500000, 474.000000) scale(-1, 1) translate(-499.500000, -474.000000) translate(397.000000, 395.000000)" id="右手">
                <path fill="#FFFFFF" id="形状-20" d="M116.830652,64.9562244 C116.830652,64.9562244 119.874939,64.9562244 121.258706,63.2982216 C121.258706,63.2982216 130.114812,53.626539 134.819619,43.4021888 C134.819619,43.4021888 137.310399,34.8358413 144.229232,31.5198358 C144.229232,31.5198358 160.004172,25.4404925 164.155472,37.5991792 L160.834432,54.7318741 L189.063272,51.1395349 C189.063272,51.1395349 201.793925,51.1395349 202.900939,61.6402189 L202.900939,108.064295 C202.900939,108.064295 202.347432,118.841313 191.554052,122.433653 L140.908192,130.170999 L124.579746,131 C124.579746,131 107.144286,115.248974 116.830652,64.9562244 L116.830652,64.9562244 Z"></path>
                <path fill="#000000" id="形状-20备份" d="M152.738957,28.0057643 C150.595011,27.9566395 148.415889,28.2240454 146.283153,28.7107015 C145.119087,28.9763225 144.131753,29.2672272 143.37812,29.5285453 L142.960935,29.6790441 C139.973316,31.1006888 137.653273,33.2052577 135.747416,35.8464255 L135.305829,36.4770926 C133.73791,38.7854239 132.730455,41.033878 132.181722,42.7400417 L132.109404,42.9713014 L132.171153,42.8489953 C130.850032,45.7205861 129.095739,48.7429989 127.014511,51.8303207 C125.26359,54.4276618 123.383372,56.9226574 121.503599,59.2210115 L121.019975,59.8078746 L120.112665,60.8839189 L119.026912,62.1214104 C118.826464,62.3575649 118.553058,62.5262107 118.149472,62.668465 C117.782063,62.797968 117.35864,62.8875158 116.930365,62.9378346 L116.420119,62.9770984 C115.236578,62.9770974 114.217637,63.8176489 113.993698,64.9805966 C109.755659,86.9893421 110.221626,104.298996 114.105182,117.43743 C115.505809,122.17588 117.272377,126.068368 119.23802,129.178251 C120.377121,130.980444 121.406687,132.258189 122.203622,133.060976 L122.492456,133.340741 C122.981707,133.794052 123.633635,134.030656 124.300157,133.99681 L140.635075,133.167316 L140.883541,133.142089 L191.549474,125.400146 L191.957509,125.30181 C196.399302,123.823165 199.684052,121.157825 201.917827,117.67773 C204.056286,114.346131 204.877001,111.03934 204.996754,108.707221 L205,62.1290628 L204.986411,61.8704975 C204.41626,56.4612095 201.264254,52.8386226 196.570383,50.8322778 C194.954037,50.1413883 193.251588,49.6854633 191.540845,49.4147887 C191.171522,49.3563542 190.820453,49.3091841 190.490573,49.271807 L189.567432,49.187584 C189.425147,49.177953 189.288893,49.1704026 189.159036,49.1647487 L188.712185,49.1523628 L188.370964,49.1720178 L163.521544,52.3323784 L166.194115,38.5430815 C166.275995,38.1205906 166.245926,37.6840662 166.106886,37.276753 C163.968655,31.0128774 159.056842,28.150528 152.738957,28.0057643 Z M153.090832,33.0273106 C156.815459,33.240514 159.462844,34.7184945 160.913117,37.9160034 L161.094013,38.340306 L157.907026,54.7935566 L157.868064,55.0826932 C157.751727,56.6120195 159.073959,57.9111355 160.644275,57.7111298 L188.66143,54.1426246 L188.56862,54.1393411 C190.146547,54.1670502 192.358228,54.5172132 194.467894,55.4195598 L194.982745,55.6526594 C197.666553,56.9385412 199.35297,58.9133455 199.828902,61.8641756 L199.89033,62.3276432 L199.89033,108.592131 L199.863928,108.836286 L199.802253,109.2386 L199.700102,109.775394 L199.552271,110.422988 C199.162477,111.994564 198.525516,113.565768 197.593285,115.019085 L197.230388,115.557401 C195.732767,117.671956 193.679217,119.318412 190.941426,120.368904 L190.420054,120.553337 L140.168366,128.239751 L125.133614,129 L125.07549,128.932709 C124.540009,128.290448 123.960726,127.496262 123.357464,126.541202 C121.636945,123.817348 120.061501,120.343706 118.791819,116.045429 L118.524554,115.112445 C115.302796,103.508994 114.847391,88.3255582 118.214091,69.1048627 L118.462205,67.7135631 L118.601947,67.6883407 C118.983875,67.6033434 119.363452,67.4966567 119.737117,67.3648625 C120.744761,67.0094589 121.632829,66.4993886 122.347225,65.7838183 L123.360818,64.6527741 L123.80539,64.1377404 L124.760801,63.0039847 C124.926903,62.8038484 125.096271,62.598238 125.268659,62.3873257 C127.23658,59.9796139 129.204057,57.3671133 131.044312,54.63546 C133.261656,51.344061 135.143668,48.0994756 136.585221,44.9640558 L136.712843,44.6217216 L136.823149,44.2776894 L136.997378,43.7982997 L137.237047,43.198364 C137.28253,43.0891521 137.330802,42.9755346 137.381897,42.85782 C137.985451,41.4673052 138.748807,40.0765526 139.675715,38.7911854 L140.169709,38.1367236 C141.344715,36.6504547 142.676174,35.4531571 144.163666,34.6143948 L144.725474,34.3193786 L144.661508,34.3433067 C146.660278,33.6018291 149.571649,32.9370648 152.524074,33.0047591 L153.090832,33.0273106 Z"></path>
                <path fill="url(#linearGradient-4)" id="袖子" d="M42.1489459,65.2525311 C79.2701595,43.4531282 120.379603,61.2610911 120.379603,61.2610911 C104.426684,122.974894 137.559668,142.318026 137.559668,142.318026 C46.1371755,173.328444 20.0602899,137.712518 20.0602899,137.712518 C-11.8455466,115.606081 9.62953564,80.2971894 9.62953564,80.2971894 C44.603241,0.161356324 128.049275,2.00355938 128.049275,2.00355938"></path>
                <path fill="#000000" id="袖子备份" d="M128.073791,0.00481352717 L127.964956,4.93861014 L127.46061,4.93497604 L126.520314,4.94395389 L125.427218,4.97325581 L124.185576,5.02554573 C123.966494,5.03632438 123.741399,5.04817186 123.510381,5.06114366 L122.0539,5.15291043 C121.799543,5.17060155 121.53944,5.18952799 121.273679,5.20974525 C116.690251,5.55842095 111.656481,6.21067828 106.290387,7.23982921 C91.3057854,10.1136917 76.3908665,15.3710901 62.4796056,23.5892798 C41.1242209,36.2051457 23.9756526,54.7288925 12.5128046,80.1731604 L11.8318684,81.7081292 L11.6783871,82.0034413 L11.4770479,82.3478443 L11.2017499,82.8460464 L10.8602185,83.4928942 C10.7982063,83.612803 10.7337563,83.7386906 10.6670294,83.8704497 C9.87642776,85.4315737 9.08321568,87.2083819 8.34216059,89.1633871 C4.76234078,98.6074443 3.70864939,108.351529 6.64810939,117.342987 C8.9774518,124.468169 13.7518299,130.773455 21.4084781,136.07414 C21.5589001,136.178277 21.6970382,136.298656 21.8204773,136.432925 L22.2585141,136.976331 L22.6542431,137.421497 C22.7313439,137.504648 22.8140642,137.592156 22.9024735,137.68384 L23.5017547,138.282602 L24.2409142,138.972873 C26.3342306,140.867012 29.0137161,142.776751 32.3330136,144.571037 C45.4928123,151.684724 63.4534396,154.779165 86.8913751,152.159384 L89.4700015,151.85084 C101.605293,150.304425 115.166533,147.26106 130.24298,142.497105 L132.328213,141.82753 L131.746208,141.306872 C129.611039,139.347443 127.494822,136.999772 125.48631,134.239066 L124.738341,133.184391 C113.747949,117.286814 109.918782,94.554933 117.217718,64.0533275 L117.424321,63.2006931 L116.724202,62.9506612 C114.526835,62.1710289 112.005844,61.3893112 109.204047,60.6586577 C90.7725612,55.852089 71.2002201,55.6578317 52.9403866,63.0792068 C50.2021924,64.1920957 47.5234964,65.4709715 44.9082704,66.9215881 L43.3467831,67.812613 L40.8492198,63.55626 C44.1636755,61.6114405 47.5775834,59.9317859 51.0822073,58.5073957 C70.4711571,50.6271119 91.0777699,50.8316345 110.449382,55.8833695 C113.392337,56.6508343 116.04778,57.4742433 118.374408,58.2997378 L119.530003,58.720418 L120.534782,59.1064958 L121.327983,59.4308061 C122.443376,59.9135818 123.041114,61.1366564 122.736706,62.3132953 C114.807247,92.9632881 118.289818,115.178299 128.797795,130.378065 C131.03181,133.609563 133.416575,136.235735 135.789064,138.30229 C136.444149,138.872902 137.057888,139.364763 137.619657,139.78069 L138.244782,140.227604 L138.775414,140.574393 C140.603729,141.640895 140.32879,144.363275 138.324152,145.04269 L135.017058,146.14479 C133.374523,146.682768 131.748487,147.201192 130.138856,147.700311 L126.941442,148.672886 C123.236582,149.777701 119.620709,150.778322 116.092653,151.677919 L113.090083,152.424335 C102.65617,154.950719 93.0095932,156.576039 84.1187511,157.385888 L81.5990474,157.595158 L79.1203082,157.760492 C58.6343798,158.956443 42.3985344,155.621964 29.9862102,148.912334 C26.3137662,146.92715 23.3116424,144.787458 20.9297108,142.632165 C19.9498243,141.745514 19.1990279,140.974633 18.6616118,140.36031 L18.278892,139.905349 L17.6640705,139.470091 C9.97545642,133.913428 4.92650253,127.269403 2.26524577,119.779296 L1.95733978,118.876438 C-1.38692296,108.646736 -0.215870628,97.8173478 3.72749024,87.4142193 C4.53334744,85.2882571 5.3975414,83.3524484 6.26434576,81.6408544 L6.68827839,80.8214234 L7.05088035,80.1514849 L7.37486879,79.5824151 L8.00206533,78.1709874 C19.6616735,52.277425 37.0550248,33.2242479 58.6676367,20.119498 L59.9694444,19.340344 C74.4056032,10.8120666 89.8504869,5.36785963 105.360831,2.39316607 C110.917064,1.32754882 116.135443,0.651370607 120.89933,0.288966829 L122.505442,0.177263951 L123.97057,0.0952253177 C124.202775,0.0838737529 124.428931,0.0736453387 124.648949,0.0644836452 L125.894711,0.0218626949 L126.98897,0.0021344116 C127.158487,-1.42108547e-14 127.321516,-1.42108547e-14 127.47797,-1.42108547e-14 L128.073791,0.00481352717 Z"></path>
            </g>
            <path fill="#F3D401" id="多边形-3" d="M612,387 C621.806452,379.857143 628.139785,364.857143 631,342 C634.064516,364.857143 640.397849,379.857143 650,387 C640.397849,393.938776 634.064516,408.938776 631,432 C628.139785,408.938776 621.806452,393.938776 612,387 L612,387 Z"></path>
            <path fill="#000000" id="多边形-3备份" d="M628.050723,342.15801 C625.262043,364.424418 619.166651,378.848522 610.014063,385.509411 C608.650467,386.501782 608.664471,388.536757 610.041597,389.510339 C619.170471,395.964153 625.26247,410.380226 628.050391,432.839327 C628.40644,435.707609 632.565819,435.725681 632.946874,432.860601 C635.935824,410.387273 642.035577,395.952851 650.978403,389.49605 C652.328929,388.520958 652.342805,386.517741 651.005916,385.524105 C642.039416,378.859803 635.936308,364.417441 632.946494,342.136555 C632.562533,339.275174 628.409495,339.293373 628.050723,342.15801 Z M630.029369,357 L630.052238,357.094998 C633.211506,370.789539 638.000109,380.783046 644.498134,387.056082 L645,387.530626 L644.57278,387.923566 C638.177202,393.948266 633.434501,403.645868 630.263732,416.997787 L630.029369,418 L629.806826,417.008732 C626.708523,403.64671 621.941315,393.939174 615.424417,387.910619 L615,387.528176 L615.500089,387.069289 C621.90765,380.994551 626.620042,371.429789 629.709737,358.398046 L630.029369,357 Z"></path>
            <path fill="#F3D401" id="多边形-3-拷贝-3" d="M643,535 C652.806452,527.857143 659.139785,512.857143 662,490 C665.064516,512.857143 671.397849,527.857143 681,535 C671.397849,541.938776 665.064516,556.938776 662,580 C659.139785,556.938776 652.806452,541.938776 643,535 L643,535 Z"></path>
            <path fill="#000000" id="多边形-3-拷贝-3备份" d="M659.050723,489.15801 C656.262043,511.424418 650.166651,525.848522 641.014063,532.509411 C639.650467,533.501782 639.664471,535.536757 641.041597,536.510339 C650.170471,542.964153 656.26247,557.380226 659.050391,579.839327 C659.40644,582.707609 663.565819,582.725681 663.946874,579.860601 C666.935824,557.387273 673.035577,542.952851 681.978403,536.49605 C683.328929,535.520958 683.342805,533.517741 682.005916,532.524105 C673.039416,525.859803 666.936308,511.417441 663.946494,489.136555 C663.562533,486.275174 659.409495,486.293373 659.050723,489.15801 Z M661.029369,504 L661.052217,504.094912 C664.211484,517.789453 669.000087,527.78296 675.498113,534.055996 L676,534.530626 L675.572758,534.92348 C669.177181,540.94818 664.43448,550.645782 661.26371,563.997701 L661.029369,565 L660.806805,564.008646 C657.708501,550.646624 652.941293,540.939088 646.424396,534.910533 L646,534.528176 L646.500068,534.069203 C652.907628,527.994465 657.62002,518.429703 660.709716,505.39796 L661.029369,504 Z"></path>
            <path fill="#F3D401" id="多边形-3-拷贝" d="M716,469.346705 C728.611814,460.966571 736.778481,443.184336 740.5,416 C744.42827,443.184336 752.594937,460.966571 765,469.346705 C752.594937,477.726839 744.42827,495.61127 740.5,523 C736.778481,495.61127 728.611814,477.726839 716,469.346705 Z"></path>
            <path fill="#000000" id="多边形-3-拷贝备份" d="M738.528178,415.136028 C734.892009,441.707241 727.004743,458.88778 715.102915,466.799226 C713.632362,467.77674 713.632362,469.91648 715.102915,470.893994 C727.002247,478.803781 734.891147,496.086638 738.527847,522.861547 C738.913692,525.702299 743.062785,525.717324 743.469655,522.879442 C747.310084,496.09275 755.205707,478.795162 766.912936,470.88337 C768.362355,469.903847 768.362355,467.789373 766.912936,466.80985 C755.203216,458.896374 747.309181,441.70109 743.469287,415.118006 C743.059841,412.283462 738.916472,412.298575 738.528178,415.136028 Z M741.525126,430 L741.5902,430.281267 C745.825596,448.658172 752.592125,461.709455 762,469.396163 L761.381809,469.915403 C752.498751,477.499983 746.024497,490.050073 741.868433,507.527436 L741.525126,509 L741.519759,508.966848 C737.479399,490.734506 730.878152,477.698178 721.618591,469.905569 L721,469.396163 L721.618022,468.892024 C730.632601,461.318375 737.12884,448.825344 741.194728,431.457932 L741.525126,430 Z"></path>
            <path fill="#F3D401" id="多边形-4" d="M2,349.5 C20.2366522,339.032407 32.1212121,316.865741 37.6536797,283 C43.1861472,316.865741 54.968254,339.032407 73,349.5 C54.968254,359.967593 43.1861472,382.134259 37.6536797,416 C32.1212121,382.134259 20.2366522,359.967593 2,349.5 Z"></path>
            <path fill="#000000" id="多边形-4备份" d="M35.7128756,282.076586 C30.2850679,315.288508 18.7406611,336.8122 1.2436458,346.851271 C-0.414548599,347.802675 -0.414548599,350.197325 1.2436458,351.148729 C18.7406611,361.1878 30.2850679,382.711492 35.7128756,415.923414 C36.165376,418.692195 40.1422137,418.692195 40.5947142,415.923414 C46.0231954,382.707371 57.4703062,361.179495 74.7668298,351.142685 C76.4110567,350.188574 76.4110567,347.811426 74.7668298,346.857315 C57.4703062,336.820505 46.0231954,315.292629 40.5947142,282.076586 C40.1422137,279.307805 36.165376,279.307805 35.7128756,282.076586 Z M38.1315874,295 L38.4145306,296.197262 C44.3933445,321.159711 54.5566047,338.62603 69,348.501235 C54.5566047,358.377131 44.3933445,375.84345 38.4145306,400.805899 L38.1315874,402 L37.8508834,400.804206 C31.9632383,376.318663 21.9848093,359.044225 7.83608379,349.078964 L7,348.501235 L7.83608379,347.924198 C21.9848093,337.958937 31.9632383,320.684498 37.8508834,296.198956 L38.1315874,295 Z"></path>
            <path fill="#000000" d="M648.635575,123 C667.898048,116.075171 674.665944,105.861048 677.26898,89.9339408 L687.854664,89.9339408 L687.854664,97.8974943 C687.854664,105.168565 683.689805,108.284738 680.913232,109.669704 C682.822126,111.574032 685.251627,116.248292 686.119306,119.191344 C688.722343,117.460137 693.234273,116.075171 720.479393,109.669704 C720.305857,107.072893 720.479393,102.052392 721,99.1093394 L701.043384,103.091116 L701.043384,89.9339408 L717.529284,89.9339408 L717.529284,78.8542141 L692.366594,78.8542141 L692.366594,68.9863326 L713.885033,68.9863326 L713.885033,58.0797267 L692.366594,58.0797267 L692.366594,47 L677.789588,47 L677.789588,58.0797267 L668.418655,58.0797267 C669.286334,55.309795 670.154013,52.7129841 671.021692,49.9430524 L657.832972,48.0387244 C655.924078,55.6560364 651.932755,64.8314351 646.206074,72.1025057 C649.67679,73.4874715 654.882863,76.2574032 657.832972,78.6810934 C660.088937,75.738041 662.171367,72.2756264 663.906725,68.9863326 L677.789588,68.9863326 L677.789588,78.8542141 L643.950108,78.8542141 L643.950108,89.9339408 L663.733189,89.9339408 C661.477223,101.186788 656.27115,108.284738 641,112.785877 C643.776573,115.036446 647.420824,119.883827 648.635575,123 Z M732,79 C734.625,75.9090909 736.55,72.4545455 738.3,69 L753,69 L753,79 L732,79 Z M682.064976,177 L682.064976,136.414013 L758.071315,136.414013 L758.071315,176.140127 L775,176.140127 L775,123 L666,123 L666,177 L682.064976,177 Z M659.902004,207 C714.449889,197.448179 728,178.691877 728,157.330532 L728,145 L712.017817,145 L712.017817,156.635854 C712.017817,171.571429 702.636971,184.770308 650,193.106443 C653.300668,196.232493 658.164811,203.179272 659.902004,207 Z M783.521628,207 L792,193.037736 C778.157761,185.533019 751.51145,175.410377 732.132316,170 L724,182.216981 C744.071247,188.5 770.544529,199.320755 783.521628,207 Z M731.576674,78.5815603 L721.727862,78.5815603 L721.727862,89.6264775 L739.87041,89.6264775 C738.142549,99.8085106 733.650108,106.021277 720,109.990544 C722.764579,112.061466 726.565875,116.893617 727.775378,120 C744.708423,113.787234 750.583153,104.295508 752.656587,89.6264775 L760.950324,89.6264775 L760.950324,102.224586 C760.950324,113.44208 763.542117,116.72104 775.11879,116.72104 L787.041037,116.72104 C795.334773,116.72104 798.790497,113.44208 800,101.189125 C796.544276,100.498818 791.360691,98.6004728 788.768898,96.7021277 C788.423326,104.640662 787.732181,105.676123 785.140389,105.676123 L777.192225,105.676123 C774.542837,105.676123 774.115071,105.517628 774.084023,102.618489 L774.082073,89.6264775 L796.198704,89.6264775 L796.198704,78.5815603 L767.170626,78.5815603 L767.170626,69.0898345 L790.49676,69.0898345 L790.49676,58.2174941 L767.170626,58.2174941 L767.170626,47 L752.311015,47 L752.311015,58.2174941 L742.634989,58.2174941 C743.671706,55.4562648 744.708423,52.6950355 745.572354,49.7612293 L732.958963,47.8628842 C730.539957,55.6288416 726.565875,64.9479905 720,72.1962175 C723.62851,73.4042553 728.639309,76.1654846 731.576674,78.5815603 Z"></path>
        </g>
    </g>
</svg>