<?xml version="1.0" standalone="no"?><!DOCTYPE svg PUBLIC "-//W3C//DTD SVG 1.1//EN" "http://www.w3.org/Graphics/SVG/1.1/DTD/svg11.dtd"><svg t="1676586801873" class="icon" viewBox="0 0 1024 1024" version="1.1" xmlns="http://www.w3.org/2000/svg" p-id="16505" xmlns:xlink="http://www.w3.org/1999/xlink" width="128" height="128"><path d="M577.975309 195.259259a162.567901 162.567901 0 0 0-21.925926 20.641976 162.567901 162.567901 0 0 1 21.925926-20.641976zM526.123457 392.493827c47.407407 0 47.407407-55.802469 94.814815-55.802469a52.444444 52.444444 0 0 1 9.086419 0.888889c-23.506173-50.17284-48.493827-92.938272-74.172839-121.481482-28.938272 32.296296-57.08642 82.765432-83.259259 141.530865 14.222222 15.802469 25.777778 34.864198 53.530864 34.864197z" fill="#C9FBF2" p-id="16506"></path><path d="M688.592593 764.938272c-91.851852 0-108.641975-53.728395-108.641976-53.728395h-227.160494c-22.222222 81.382716-35.160494 138.864198-35.160493 138.864197h476.54321s-7.506173-33.283951-20.839507-85.135802z" fill="#6ADDD6" p-id="16507"></path><path d="M688.592593 764.938272h84.74074c-26.37037-101.925926-75.259259-275.358025-134.123456-407.308642-2.962963-6.814815-6.123457-13.530864-9.185186-19.753087a52.444444 52.444444 0 0 0-9.086419-0.888889c-47.407407 0-47.407407 55.802469-94.814815 55.802469-27.753086 0-39.506173-19.061728-53.530864-34.864197-49.382716 110.91358-91.950617 251.160494-119.80247 353.580247h227.160494s16.790123 53.432099 108.641976 53.432099z" fill="#6ADDD6" p-id="16508"></path><path d="M715.753086 392.493827c27.753086 0 39.506173-19.061728 53.530865-34.864197C723.753086 255.506173 672.395062 177.777778 620.938272 177.777778a56.197531 56.197531 0 0 0-8.987655 0.790123l-3.160494 0.790124a36.54321 36.54321 0 0 0-5.629629 1.580247c-1.382716 0-2.765432 0.987654-4.049383 1.481481l-4.740741 2.074074-4.54321 2.469136c-1.382716 0.691358-2.666667 1.580247-3.950617 2.37037a58.37037 58.37037 0 0 0-5.135802 3.45679l-2.765432 2.074075a162.567901 162.567901 0 0 0-21.925926 20.641975c25.679012 28.54321 50.666667 71.308642 74.172839 121.481481 38.320988 7.209877 41.382716 55.506173 85.530864 55.506173z" fill="#A9ECEB" p-id="16509"></path><path d="M773.333333 764.938272c13.333333 51.851852 20.839506 85.135802 20.839507 85.135802h130.074074s-7.506173-33.283951-20.938272-85.135802zM715.753086 392.493827c-44.148148 0-47.209877-48.296296-85.728395-54.91358 3.061728 6.518519 6.222222 13.234568 9.185186 19.753086 59.259259 131.950617 107.753086 305.382716 134.123456 407.308642h129.975309c-26.271605-101.62963-75.160494-275.061728-134.024691-407.012345-14.222222 15.802469-25.777778 34.864198-53.530865 34.864197z" fill="#00B2A7" p-id="16510"></path><path d="M342.617284 425.481481l4.049383-0.790123zM332.938272 429.530864l4.444444-1.975308zM317.925926 438.518519a127.308642 127.308642 0 0 1 11.45679-7.012346 127.308642 127.308642 0 0 0-11.45679 7.012346zM309.234568 445.135802l6.814815-5.333333zM300.345679 452.740741zM352.691358 422.716049a33.876543 33.876543 0 0 1 3.358025-0.592592 33.876543 33.876543 0 0 0-3.358025 0.592592zM270.518519 628.049383c47.407407 0 47.407407-55.703704 94.814814-55.703704a46.91358 46.91358 0 0 1 23.407408 5.827161c-26.864198-50.666667-56.987654-96.592593-88.395062-125.432099-32.790123 29.62963-64.098765 79.012346-91.851852 132.049382 18.666667 16.395062 29.037037 43.259259 62.024692 43.25926z" fill="#C9FBF2" p-id="16511"></path><path d="M388.740741 578.17284A46.91358 46.91358 0 0 0 365.432099 572.839506c-47.407407 0-47.407407 55.703704-94.814815 55.703704-32.987654 0-43.061728-26.864198-62.024691-43.259259a1832.691358 1832.691358 0 0 0-107.654321 265.28395h399.012345a1849.481481 1849.481481 0 0 0-107.654321-265.876543zM316.049383 439.802469l1.876543-1.28395zM307.654321 446.419753l1.580247-1.283951zM300.345679 452.740741zM346.666667 424.691358c1.975309-0.592593 4.049383-1.08642 6.024691-1.481481-1.975309-0.098765-4.049383 0.395062-6.024691 1.481481zM337.382716 427.555556l5.234568-2.074075zM329.382716 431.506173l3.555556-1.975309zM356.049383 422.123457a59.259259 59.259259 0 0 1 9.876543-0.790124 59.259259 59.259259 0 0 0-9.876543 0.790124z" fill="#00C4B8" p-id="16512"></path><path d="M388.740741 578.17284C414.814815 592.592593 422.222222 628.049383 460.246914 628.049383c32.987654 0 43.061728-26.864198 62.123456-43.358025C476.54321 496.987654 421.037037 421.333333 365.432099 421.333333a59.259259 59.259259 0 0 0-9.876543 0.790124 33.876543 33.876543 0 0 0-3.358025 0.592592c-1.975309 0-4.049383 0.888889-6.024691 1.481482l-4.049383 1.28395-5.234568 2.074075-4.444445 1.975308-3.555555 1.975309a127.308642 127.308642 0 0 0-11.45679 7.012346l-1.876543 1.28395-6.814815 5.333333-1.580247 1.283951c-2.469136 1.975309-4.839506 4.049383-7.308642 6.320988 31.901235 28.839506 62.024691 74.765432 88.888889 125.432099z" fill="#A9ECEB" p-id="16513"></path><path d="M522.37037 584.691358c-19.061728 16.493827-29.62963 43.358025-62.123456 43.358025-38.024691 0-45.62963-35.654321-71.506173-49.876543l3.555555 6.518518a1849.481481 1849.481481 0 0 1 107.654321 265.382716h130.074074a1836.345679 1836.345679 0 0 0-107.654321-265.382716z" fill="#00A298" p-id="16514"></path><path d="M958.024691 867.753086a17.777778 17.777778 0 0 1-17.777777 17.679013H84.938272a17.679012 17.679012 0 0 1-17.679013-17.679013 17.679012 17.679012 0 0 1 17.679013-17.679012h855.111111A17.777778 17.777778 0 0 1 958.024691 867.753086z" fill="#6ADDD6" p-id="16515"></path><path d="M434.567901 302.814815a28.740741 28.740741 0 0 1-29.629629 28.740741H250.469136a28.740741 28.740741 0 0 1-28.740741-28.740741 28.740741 28.740741 0 0 1 28.740741-28.740741H404.938272a28.740741 28.740741 0 0 1 29.629629 28.740741z" fill="#C9FBF2" p-id="16516"></path><path d="M385.185185 331.555556a28.839506 28.839506 0 0 1-28.839506 28.839506h-155.061728a28.740741 28.740741 0 0 1-28.740741-28.839506 28.740741 28.740741 0 0 1 28.740741-28.740741h154.864197A28.839506 28.839506 0 0 1 385.185185 331.555556zM945.975309 552.098765a25.876543 25.876543 0 0 1-25.876544 25.876544h-139.259259a25.876543 25.876543 0 0 1-25.876543-25.876544 25.975309 25.975309 0 0 1 25.876543-25.876543h139.259259a25.975309 25.975309 0 0 1 25.876544 25.876543z" fill="#C9FBF2" p-id="16517"></path><path d="M864.395062 524.839506a25.876543 25.876543 0 0 1-25.876543 25.876543h-21.62963a25.876543 25.876543 0 0 1-25.876543-25.876543 25.876543 25.876543 0 0 1 25.876543-25.876543h21.62963a25.876543 25.876543 0 0 1 25.876543 25.876543zM372.444444 274.074074a25.876543 25.876543 0 0 1-25.876543 25.876543H324.938272a25.975309 25.975309 0 0 1-25.975309-25.876543 25.876543 25.876543 0 0 1 25.975309-25.876543h21.629629a25.876543 25.876543 0 0 1 25.876543 25.876543z" fill="#C9FBF2" p-id="16518"></path></svg>